<svg width="24" height="24" viewBox="0 0 24 24" fill="none" xmlns="http://www.w3.org/2000/svg">
<path d="M2.68506 8.765C2.68503 8.6589 2.70623 8.55386 2.74743 8.45607C2.78863 8.35829 2.84898 8.26975 2.92494 8.19566C3.00089 8.12157 3.09091 8.06343 3.18968 8.02468C3.28845 7.98592 3.39399 7.96733 3.50006 7.97H15.0701C15.2783 7.97 15.4779 8.05271 15.6251 8.19992C15.7724 8.34714 15.8551 8.54681 15.8551 8.755V10C15.8551 10.2082 15.7724 10.4079 15.6251 10.5551C15.4779 10.7023 15.2783 10.785 15.0701 10.785H3.50006C3.39447 10.789 3.28916 10.7717 3.19043 10.7341C3.0917 10.6964 3.00158 10.6393 2.92548 10.566C2.84938 10.4927 2.78886 10.4048 2.74755 10.3075C2.70624 10.2103 2.68498 10.1057 2.68506 10V8.765ZM12.0001 20.455C12.0001 20.665 11.917 20.8664 11.769 21.0154C11.621 21.1643 11.42 21.2487 11.2101 21.25H3.50006C3.28921 21.25 3.087 21.1662 2.93791 21.0171C2.78882 20.8681 2.70506 20.6658 2.70506 20.455V19.21C2.70899 19.0018 2.79448 18.8034 2.94315 18.6575C3.09181 18.5117 3.29179 18.43 3.50006 18.43H11.2101C11.4179 18.43 11.6173 18.5118 11.7652 18.6578C11.913 18.8038 11.9974 19.0022 12.0001 19.21V20.455ZM19.7051 15.235C19.7051 15.4445 19.6218 15.6455 19.4737 15.7936C19.3255 15.9418 19.1246 16.025 18.9151 16.025H3.50006C3.29047 16.0237 3.08977 15.9402 2.9411 15.7925C2.79243 15.6447 2.70767 15.4446 2.70506 15.235V14C2.70103 13.7926 2.77922 13.5921 2.92256 13.4422C3.0659 13.2923 3.26273 13.2052 3.47006 13.2H18.9351C19.0403 13.1986 19.1447 13.2184 19.2421 13.2582C19.3395 13.298 19.4279 13.357 19.502 13.4316C19.5762 13.5062 19.6346 13.595 19.6738 13.6926C19.7129 13.7903 19.7321 13.8948 19.7301 14L19.7051 15.235ZM21.2951 4.78C21.2964 4.88477 21.2768 4.98875 21.2373 5.08582C21.1978 5.18288 21.1393 5.27105 21.0652 5.34514C20.9911 5.41924 20.9029 5.47774 20.8059 5.51722C20.7088 5.5567 20.6048 5.57634 20.5001 5.575H3.50006C3.39399 5.57767 3.28845 5.55908 3.18968 5.52032C3.09091 5.48157 3.00089 5.42343 2.92494 5.34934C2.84898 5.27525 2.78863 5.18671 2.74743 5.08892C2.70623 4.99114 2.68503 4.88611 2.68506 4.78V3.535C2.68506 3.32681 2.76776 3.12714 2.91498 2.97992C3.0622 2.83271 3.26186 2.75 3.47006 2.75H20.5301C20.7383 2.75 20.9379 2.83271 21.0851 2.97992C21.2324 3.12714 21.3151 3.32681 21.3151 3.535L21.2951 4.78Z" stroke="#707070" stroke-width="0.5" stroke-linecap="round" stroke-linejoin="round"/>
</svg>
