<svg width="24" height="24" viewBox="0 0 24 24" fill="none" xmlns="http://www.w3.org/2000/svg">
<path d="M12 17.749C12.2071 17.749 12.375 17.5811 12.375 17.374C12.375 17.1669 12.2071 16.999 12 16.999C11.7929 16.999 11.625 17.1669 11.625 17.374C11.625 17.5811 11.7929 17.749 12 17.749Z" fill="#707070"/>
<path d="M8.54004 9.71148C8.54004 8.75598 8.92704 7.89098 9.55354 7.26448C10.18 6.63798 11.0445 6.25098 12 6.25098C12.9177 6.25098 13.7978 6.61551 14.4466 7.26439C15.0955 7.91326 15.46 8.79333 15.46 9.71098C15.46 10.667 15.1375 11.604 14.4465 12.158C13.7305 12.7325 11.9875 13.6735 11.9875 15.138" stroke="#707070" stroke-width="0.5" stroke-linecap="round" stroke-linejoin="round"/>
<path d="M12 22.75C17.9371 22.75 22.75 17.9371 22.75 12C22.75 6.06294 17.9371 1.25 12 1.25C6.06294 1.25 1.25 6.06294 1.25 12C1.25 17.9371 6.06294 22.75 12 22.75Z" stroke="#707070" stroke-width="0.5" stroke-linecap="round" stroke-linejoin="round"/>
</svg>
