<svg width="24" height="24" viewBox="0 0 24 24" fill="none" xmlns="http://www.w3.org/2000/svg">
<path d="M8.75 2.75H4.75C3.64543 2.75 2.75 3.64543 2.75 4.75V8.75C2.75 9.85457 3.64543 10.75 4.75 10.75H8.75C9.85457 10.75 10.75 9.85457 10.75 8.75V4.75C10.75 3.64543 9.85457 2.75 8.75 2.75Z" stroke="#707070" stroke-width="0.5" stroke-linecap="round" stroke-linejoin="round"/>
<path d="M19.25 13.25H15.25C14.1454 13.25 13.25 14.1454 13.25 15.25V19.25C13.25 20.3546 14.1454 21.25 15.25 21.25H19.25C20.3546 21.25 21.25 20.3546 21.25 19.25V15.25C21.25 14.1454 20.3546 13.25 19.25 13.25Z" stroke="#707070" stroke-width="0.5" stroke-linecap="round" stroke-linejoin="round"/>
<path d="M19.25 2.75H15.25C14.1454 2.75 13.25 3.64543 13.25 4.75V8.75C13.25 9.85457 14.1454 10.75 15.25 10.75H19.25C20.3546 10.75 21.25 9.85457 21.25 8.75V4.75C21.25 3.64543 20.3546 2.75 19.25 2.75Z" stroke="#707070" stroke-width="0.5" stroke-linecap="round" stroke-linejoin="round"/>
<path d="M8.75 13.25H4.75C3.64543 13.25 2.75 14.1454 2.75 15.25V19.25C2.75 20.3546 3.64543 21.25 4.75 21.25H8.75C9.85457 21.25 10.75 20.3546 10.75 19.25V15.25C10.75 14.1454 9.85457 13.25 8.75 13.25Z" stroke="#707070" stroke-width="0.5" stroke-linecap="round" stroke-linejoin="round"/>
</svg>
