<svg width="24" height="24" viewBox="0 0 24 24" fill="none" xmlns="http://www.w3.org/2000/svg">
<path d="M19.6149 13C19.6579 12.6684 19.6813 12.3345 19.6849 12C19.6813 11.6656 19.6579 11.3317 19.6149 11L21.7799 9.30503C21.8777 9.23036 21.9445 9.12226 21.9676 9.00141C21.9906 8.88057 21.9683 8.75547 21.9049 8.65003L19.8549 5.09503C19.7956 4.9884 19.6992 4.90717 19.5841 4.86665C19.469 4.82612 19.343 4.82911 19.2299 4.87503L16.6749 5.90503C16.1432 5.49937 15.5618 5.16331 14.9449 4.90503L14.5599 2.19003C14.543 2.0699 14.4829 1.96003 14.3909 1.88092C14.2989 1.8018 14.1813 1.75884 14.0599 1.76003H9.94993C9.82861 1.75884 9.71099 1.8018 9.61899 1.88092C9.527 1.96003 9.46692 2.0699 9.44993 2.19003L9.06493 4.90503C8.44728 5.16181 7.86572 5.49797 7.33494 5.90503L4.76994 4.87503C4.65686 4.82911 4.53089 4.82612 4.41576 4.86665C4.30064 4.90717 4.20431 4.9884 4.14494 5.09503L2.09494 8.65003C2.03154 8.75547 2.00924 8.88057 2.0323 9.00141C2.05536 9.12226 2.12217 9.23036 2.21994 9.30503L4.37994 11C4.33695 11.3317 4.31358 11.6656 4.30994 12C4.31358 12.3345 4.33695 12.6684 4.37994 13L2.21994 14.695C2.12217 14.7697 2.05536 14.8778 2.0323 14.9987C2.00924 15.1195 2.03154 15.2446 2.09494 15.35L4.14494 18.905C4.20431 19.0117 4.30064 19.0929 4.41576 19.1334C4.53089 19.1739 4.65686 19.171 4.76994 19.125L7.32493 18.095C7.85665 18.5007 8.43802 18.8368 9.05494 19.095L9.43993 21.81C9.45692 21.9302 9.517 22.04 9.60899 22.1192C9.70099 22.1983 9.81861 22.2412 9.93993 22.24H14.0399C14.1613 22.2412 14.2789 22.1983 14.3709 22.1192C14.4629 22.04 14.523 21.9302 14.5399 21.81L14.9249 19.095C15.5426 18.8383 16.1242 18.5021 16.6549 18.095L19.2099 19.125C19.323 19.171 19.449 19.1739 19.5641 19.1334C19.6792 19.0929 19.7756 19.0117 19.8349 18.905L21.8849 15.35C21.9483 15.2446 21.9706 15.1195 21.9476 14.9987C21.9245 14.8778 21.8577 14.7697 21.7599 14.695L19.6149 13ZM11.9999 15.59C11.2897 15.591 10.5951 15.3813 10.0041 14.9874C9.41305 14.5936 8.95213 14.0332 8.67964 13.3773C8.40716 12.7214 8.33535 11.9995 8.47331 11.3027C8.61126 10.606 8.95278 9.96586 9.45465 9.46329C9.95652 8.96072 10.5962 8.61831 11.2927 8.47938C11.9892 8.34046 12.7113 8.41126 13.3676 8.68283C14.0239 8.9544 14.5849 9.41454 14.9796 10.005C15.3743 10.5955 15.5849 11.2898 15.5849 12C15.5856 12.4712 15.4933 12.938 15.3135 13.3735C15.1336 13.809 14.8696 14.2048 14.5367 14.5382C14.2037 14.8717 13.8083 15.1362 13.373 15.3167C12.9377 15.4971 12.4711 15.59 11.9999 15.59Z" stroke="#707070" stroke-width="0.5" stroke-linecap="round" stroke-linejoin="round"/>
</svg>
