<svg width="24" height="24" viewBox="0 0 24 24" fill="none" xmlns="http://www.w3.org/2000/svg">
<path d="M18.6383 16.35V10.745C18.6375 9.25308 18.1339 7.80498 17.2088 6.6345C16.2837 5.46403 14.9912 4.63948 13.5398 4.29399V3.80149C13.5398 3.39014 13.3764 2.99563 13.0855 2.70477C12.7947 2.4139 12.4002 2.25049 11.9888 2.25049C11.5775 2.25049 11.1829 2.4139 10.8921 2.70477C10.6012 2.99563 10.4378 3.39014 10.4378 3.80149V4.29999C8.99152 4.64948 7.70469 5.47496 6.78402 6.64382C5.86335 7.81268 5.36228 9.25708 5.3613 10.745V16.35L3.2583 18.453V19.4245H20.7413V18.453L18.6383 16.35Z" stroke="white" stroke-width="0.5" stroke-linecap="round" stroke-linejoin="round"/>
<path d="M9.66285 19.4246C9.65833 19.7329 9.71515 20.039 9.83 20.3251C9.94485 20.6112 10.1154 20.8717 10.3319 21.0913C10.5483 21.3109 10.8062 21.4853 11.0906 21.6043C11.375 21.7234 11.6803 21.7847 11.9886 21.7847C12.2969 21.7847 12.6022 21.7234 12.8866 21.6043C13.171 21.4853 13.4289 21.3109 13.6453 21.0913C13.8618 20.8717 14.0323 20.6112 14.1472 20.3251C14.262 20.039 14.3189 19.7329 14.3143 19.4246" stroke="white" stroke-width="0.5" stroke-linecap="round" stroke-linejoin="round"/>
</svg>
