<svg width="25" height="24" viewBox="0 0 25 24" fill="none" xmlns="http://www.w3.org/2000/svg">
<path d="M20.6185 17.4465C20.334 18.1089 19.9827 18.7405 19.57 19.3315C19.019 20.1175 18.5675 20.6615 18.22 20.9635C17.6806 21.4592 17.102 21.714 16.484 21.728C16.04 21.728 15.504 21.6015 14.8805 21.345C14.2558 21.0903 13.6805 20.9632 13.1545 20.9635C12.6035 20.9632 12.0118 21.0903 11.3795 21.345C10.7465 21.601 10.2353 21.7355 9.84598 21.7485C9.25264 21.7738 8.66098 21.5122 8.07098 20.9635C7.69398 20.6348 7.22314 20.0715 6.65848 19.2735C6.05248 18.4218 5.55448 17.4328 5.16448 16.3065C4.74681 15.0898 4.53781 13.9112 4.53748 12.7705C4.53748 11.4632 4.82014 10.337 5.38548 9.392C5.82948 8.63367 6.42148 8.03483 7.16148 7.5955C8.27148 6.9365 8.70148 6.9325 9.56248 6.918C10.0335 6.918 10.6515 7.064 11.4195 7.3505C12.1855 7.6385 12.6765 7.78283 12.8925 7.7835C13.0535 7.7835 13.6 7.6135 14.526 7.2735C15.4013 6.95883 16.1413 6.82733 16.746 6.879C18.3865 7.0115 19.6195 7.6585 20.439 8.8235C18.9716 9.71317 18.2455 10.957 18.2605 12.555C18.2735 13.799 18.725 14.835 19.612 15.6565C20.0042 16.0317 20.4617 16.332 20.962 16.5425C20.8574 16.8476 20.7432 17.1491 20.6185 17.4465ZM16.856 2.64C16.8553 3.616 16.4998 4.52567 15.7895 5.369C14.9325 6.3705 13.896 6.9495 12.7715 6.8585C12.7564 6.73575 12.7488 6.61218 12.749 6.4885C12.749 5.5525 13.1565 4.5505 13.8805 3.7315C14.2421 3.3165 14.7015 2.9715 15.2585 2.6965C15.8148 2.42483 16.3405 2.276 16.8355 2.25C16.8495 2.38 16.8561 2.51 16.8555 2.64H16.856Z" stroke="white" stroke-width="0.5" stroke-linecap="round" stroke-linejoin="round"/>
</svg>
