<svg width="24" height="24" viewBox="0 0 24 24" fill="none" xmlns="http://www.w3.org/2000/svg">
<path d="M6.85761 2.75V4.784M17.0701 2.75V4.784M4.86561 9.945H19.0456M5.76611 4.7835H18.2341C18.7645 4.7835 19.2733 4.99421 19.6483 5.36929C20.0234 5.74436 20.2341 6.25307 20.2341 6.7835V19.25C20.2341 19.7804 20.0234 20.2891 19.6483 20.6642C19.2733 21.0393 18.7645 21.25 18.2341 21.25H5.76611C5.23568 21.25 4.72697 21.0393 4.3519 20.6642C3.97683 20.2891 3.76611 19.7804 3.76611 19.25V6.7835C3.76611 6.25307 3.97683 5.74436 4.3519 5.36929C4.72697 4.99421 5.23568 4.7835 5.76611 4.7835Z" stroke="#707070" stroke-width="0.5" stroke-linecap="round" stroke-linejoin="round"/>
</svg>
