<svg width="24" height="24" viewBox="0 0 24 24" fill="none" xmlns="http://www.w3.org/2000/svg">
<path d="M2.6648 17.3344C1.49543 15.2865 1.03162 12.9109 1.34476 10.5735C1.65789 8.2361 2.73062 6.0664 4.3978 4.39844L11.9998 11.9999L4.3983 19.6014C5.81578 21.0179 7.601 22.0098 9.55241 22.4654C11.5038 22.9209 13.5437 22.8218 15.4418 22.1794C17.3399 21.5369 19.0206 20.3766 20.2942 18.8295C21.5678 17.2824 22.3835 15.4101 22.6493 13.4239C22.9151 11.4378 22.6204 9.41685 21.7984 7.58932C20.9764 5.76178 19.66 4.20042 17.9976 3.08148C16.3352 1.96255 14.3931 1.33061 12.3906 1.25701C10.3881 1.18341 8.40484 1.67107 6.6648 2.66494" stroke="#707070" stroke-width="0.5" stroke-linecap="round" stroke-linejoin="round"/>
</svg>
