<svg width="25" height="24" viewBox="0 0 25 24" fill="none" xmlns="http://www.w3.org/2000/svg">
<path d="M16.5905 17.4435C15.633 18.0885 14.4115 18.4795 12.965 18.4795C10.17 18.4795 7.79497 16.593 6.94497 14.0525V14.0425C6.72997 13.3975 6.60297 12.7135 6.60297 12C6.60297 11.2865 6.72997 10.6025 6.94497 9.9575C7.79497 7.4165 10.17 5.5305 12.965 5.5305C14.548 5.5305 15.955 6.0775 17.0795 7.133L20.1575 4.055C18.291 2.315 15.8675 1.25 12.965 1.25C8.76247 1.25 5.13697 3.664 3.36797 7.182C2.63497 8.6285 2.21497 10.2605 2.21497 12C2.21497 13.7395 2.63497 15.3715 3.36797 16.818V16.828C5.13697 20.3355 8.76297 22.75 12.965 22.75C15.8675 22.75 18.301 21.7925 20.0795 20.15C22.1125 18.274 23.2845 15.518 23.2845 12.2445C23.2845 11.482 23.2165 10.7495 23.0895 10.0455H12.9645V14.2085H18.7505C18.4965 15.5475 17.734 16.681 16.5905 17.4435Z" stroke="white" stroke-width="0.5" stroke-linecap="round" stroke-linejoin="round"/>
</svg>
