<svg width="579" height="218" viewBox="0 0 579 218" fill="none" xmlns="http://www.w3.org/2000/svg">
<path d="M4.84091 14.6591C4.17424 14.6591 3.57386 14.5265 3.03977 14.2614C2.50568 13.9962 2.07765 13.6326 1.75568 13.1705C1.43371 12.7083 1.25758 12.1818 1.22727 11.5909H2.59091C2.64394 12.1174 2.88258 12.553 3.30682 12.8977C3.73485 13.2386 4.24621 13.4091 4.84091 13.4091C5.31818 13.4091 5.74242 13.2973 6.11364 13.0739C6.48864 12.8504 6.7822 12.5436 6.99432 12.1534C7.21023 11.7595 7.31818 11.3144 7.31818 10.8182C7.31818 10.3106 7.20644 9.85795 6.98295 9.46023C6.76326 9.05871 6.46023 8.74242 6.07386 8.51136C5.6875 8.2803 5.24621 8.16288 4.75 8.15909C4.39394 8.1553 4.02841 8.21023 3.65341 8.32386C3.27841 8.43371 2.9697 8.57576 2.72727 8.75L1.40909 8.59091L2.11364 2.86364H8.15909V4.11364H3.29545L2.88636 7.54545H2.95455C3.19318 7.35606 3.49242 7.19886 3.85227 7.07386C4.21212 6.94886 4.58712 6.88636 4.97727 6.88636C5.68939 6.88636 6.32386 7.05682 6.88068 7.39773C7.44129 7.73485 7.88068 8.19697 8.19886 8.78409C8.52083 9.37121 8.68182 10.0417 8.68182 10.7955C8.68182 11.5379 8.51515 12.2008 8.18182 12.7841C7.85227 13.3636 7.39773 13.822 6.81818 14.1591C6.23864 14.4924 5.57955 14.6591 4.84091 14.6591ZM14.7344 14.6591C13.8783 14.6591 13.1491 14.4261 12.5469 13.9602C11.9446 13.4905 11.4844 12.8106 11.1662 11.9205C10.848 11.0265 10.6889 9.94697 10.6889 8.68182C10.6889 7.42424 10.848 6.35038 11.1662 5.46023C11.4882 4.56629 11.9503 3.88447 12.5526 3.41477C13.1586 2.94129 13.8859 2.70455 14.7344 2.70455C15.5829 2.70455 16.3082 2.94129 16.9105 3.41477C17.5166 3.88447 17.9787 4.56629 18.2969 5.46023C18.6188 6.35038 18.7798 7.42424 18.7798 8.68182C18.7798 9.94697 18.6207 11.0265 18.3026 11.9205C17.9844 12.8106 17.5241 13.4905 16.9219 13.9602C16.3196 14.4261 15.5904 14.6591 14.7344 14.6591ZM14.7344 13.4091C15.5829 13.4091 16.242 13 16.7116 12.1818C17.1813 11.3636 17.4162 10.197 17.4162 8.68182C17.4162 7.67424 17.3082 6.81629 17.0923 6.10795C16.8802 5.39962 16.5734 4.85985 16.1719 4.48864C15.7741 4.11742 15.295 3.93182 14.7344 3.93182C13.8935 3.93182 13.2363 4.34659 12.7628 5.17614C12.2893 6.00189 12.0526 7.17045 12.0526 8.68182C12.0526 9.68939 12.1586 10.5455 12.3707 11.25C12.5829 11.9545 12.8878 12.4905 13.2855 12.858C13.687 13.2254 14.17 13.4091 14.7344 13.4091ZM26.8707 12.3182V11.7045C26.8707 11.2803 26.9579 10.892 27.1321 10.5398C27.3101 10.1837 27.5677 9.89962 27.9048 9.6875C28.2457 9.47159 28.6586 9.36364 29.1435 9.36364C29.6359 9.36364 30.0488 9.47159 30.3821 9.6875C30.7154 9.89962 30.9673 10.1837 31.1378 10.5398C31.3082 10.892 31.3935 11.2803 31.3935 11.7045V12.3182C31.3935 12.7424 31.3063 13.1326 31.1321 13.4886C30.9616 13.8409 30.7079 14.125 30.3707 14.3409C30.0374 14.553 29.6283 14.6591 29.1435 14.6591C28.651 14.6591 28.2363 14.553 27.8991 14.3409C27.562 14.125 27.3063 13.8409 27.1321 13.4886C26.9579 13.1326 26.8707 12.7424 26.8707 12.3182ZM28.0298 11.7045V12.3182C28.0298 12.6705 28.1132 12.9867 28.2798 13.267C28.4465 13.5436 28.7344 13.6818 29.1435 13.6818C29.5412 13.6818 29.8215 13.5436 29.9844 13.267C30.151 12.9867 30.2344 12.6705 30.2344 12.3182V11.7045C30.2344 11.3523 30.1548 11.0379 29.9957 10.7614C29.8366 10.4811 29.5526 10.3409 29.1435 10.3409C28.7457 10.3409 28.4598 10.4811 28.2855 10.7614C28.1151 11.0379 28.0298 11.3523 28.0298 11.7045ZM21.0753 5.65909V5.04545C21.0753 4.62121 21.1624 4.23295 21.3366 3.88068C21.5147 3.52462 21.7723 3.24053 22.1094 3.02841C22.4503 2.8125 22.8632 2.70455 23.348 2.70455C23.8404 2.70455 24.2533 2.8125 24.5866 3.02841C24.92 3.24053 25.1719 3.52462 25.3423 3.88068C25.5128 4.23295 25.598 4.62121 25.598 5.04545V5.65909C25.598 6.08333 25.5109 6.47348 25.3366 6.82955C25.1662 7.18182 24.9124 7.46591 24.5753 7.68182C24.242 7.89394 23.8329 8 23.348 8C22.8556 8 22.4408 7.89394 22.1037 7.68182C21.7666 7.46591 21.5109 7.18182 21.3366 6.82955C21.1624 6.47348 21.0753 6.08333 21.0753 5.65909ZM22.2344 5.04545V5.65909C22.2344 6.01136 22.3177 6.32765 22.4844 6.60795C22.651 6.88447 22.9389 7.02273 23.348 7.02273C23.7457 7.02273 24.026 6.88447 24.1889 6.60795C24.3556 6.32765 24.4389 6.01136 24.4389 5.65909V5.04545C24.4389 4.69318 24.3594 4.37879 24.2003 4.10227C24.0412 3.82197 23.7571 3.68182 23.348 3.68182C22.9503 3.68182 22.6643 3.82197 22.4901 4.10227C22.3196 4.37879 22.2344 4.69318 22.2344 5.04545ZM21.5071 14.5L29.5071 2.86364H30.8026L22.8026 14.5H21.5071Z" fill="white"/>
<line x1="49.5" y1="16" x2="562.5" y2="16" stroke="white" stroke-linecap="round" stroke-dasharray="4 4"/>
<path d="M5.13636 54.6591C4.38636 54.6591 3.7178 54.5303 3.13068 54.2727C2.54735 54.0152 2.08333 53.6572 1.73864 53.1989C1.39773 52.7367 1.21212 52.2008 1.18182 51.5909H2.61364C2.64394 51.9659 2.77273 52.2898 3 52.5625C3.22727 52.8314 3.52462 53.0398 3.89205 53.1875C4.25947 53.3352 4.66667 53.4091 5.11364 53.4091C5.61364 53.4091 6.05682 53.322 6.44318 53.1477C6.82955 52.9735 7.13258 52.7311 7.35227 52.4205C7.57197 52.1098 7.68182 51.75 7.68182 51.3409C7.68182 50.9129 7.57576 50.536 7.36364 50.2102C7.15152 49.8807 6.84091 49.6231 6.43182 49.4375C6.02273 49.2519 5.52273 49.1591 4.93182 49.1591H4V47.9091H4.93182C5.39394 47.9091 5.79924 47.8258 6.14773 47.6591C6.5 47.4924 6.77462 47.2576 6.97159 46.9545C7.17235 46.6515 7.27273 46.2955 7.27273 45.8864C7.27273 45.4924 7.18561 45.1496 7.01136 44.858C6.83712 44.5663 6.59091 44.339 6.27273 44.1761C5.95833 44.0133 5.58712 43.9318 5.15909 43.9318C4.75758 43.9318 4.37879 44.0057 4.02273 44.1534C3.67045 44.2973 3.38258 44.5076 3.15909 44.7841C2.93561 45.0568 2.81439 45.3864 2.79545 45.7727H1.43182C1.45455 45.1629 1.63826 44.6288 1.98295 44.1705C2.32765 43.7083 2.77841 43.3485 3.33523 43.0909C3.89583 42.8333 4.51136 42.7045 5.18182 42.7045C5.90152 42.7045 6.51894 42.8504 7.03409 43.142C7.54924 43.4299 7.94508 43.8106 8.22159 44.2841C8.49811 44.7576 8.63636 45.2689 8.63636 45.8182C8.63636 46.4735 8.46402 47.0322 8.11932 47.4943C7.77841 47.9564 7.31439 48.2765 6.72727 48.4545V48.5455C7.46212 48.6667 8.03598 48.9792 8.44886 49.483C8.86174 49.983 9.06818 50.6023 9.06818 51.3409C9.06818 51.9735 8.89583 52.5417 8.55114 53.0455C8.21023 53.5455 7.74432 53.9394 7.15341 54.2273C6.5625 54.5152 5.89015 54.6591 5.13636 54.6591ZM15.1875 54.6591C14.3314 54.6591 13.6023 54.4261 13 53.9602C12.3977 53.4905 11.9375 52.8106 11.6193 51.9205C11.3011 51.0265 11.142 49.947 11.142 48.6818C11.142 47.4242 11.3011 46.3504 11.6193 45.4602C11.9413 44.5663 12.4034 43.8845 13.0057 43.4148C13.6117 42.9413 14.339 42.7045 15.1875 42.7045C16.036 42.7045 16.7614 42.9413 17.3636 43.4148C17.9697 43.8845 18.4318 44.5663 18.75 45.4602C19.072 46.3504 19.233 47.4242 19.233 48.6818C19.233 49.947 19.0739 51.0265 18.7557 51.9205C18.4375 52.8106 17.9773 53.4905 17.375 53.9602C16.7727 54.4261 16.0436 54.6591 15.1875 54.6591ZM15.1875 53.4091C16.036 53.4091 16.6951 53 17.1648 52.1818C17.6345 51.3636 17.8693 50.197 17.8693 48.6818C17.8693 47.6742 17.7614 46.8163 17.5455 46.108C17.3333 45.3996 17.0265 44.8598 16.625 44.4886C16.2273 44.1174 15.7481 43.9318 15.1875 43.9318C14.3466 43.9318 13.6894 44.3466 13.2159 45.1761C12.7424 46.0019 12.5057 47.1705 12.5057 48.6818C12.5057 49.6894 12.6117 50.5455 12.8239 51.25C13.036 51.9545 13.3409 52.4905 13.7386 52.858C14.1402 53.2254 14.6231 53.4091 15.1875 53.4091ZM27.3239 52.3182V51.7045C27.3239 51.2803 27.411 50.892 27.5852 50.5398C27.7633 50.1837 28.0208 49.8996 28.358 49.6875C28.6989 49.4716 29.1117 49.3636 29.5966 49.3636C30.089 49.3636 30.5019 49.4716 30.8352 49.6875C31.1686 49.8996 31.4205 50.1837 31.5909 50.5398C31.7614 50.892 31.8466 51.2803 31.8466 51.7045V52.3182C31.8466 52.7424 31.7595 53.1326 31.5852 53.4886C31.4148 53.8409 31.161 54.125 30.8239 54.3409C30.4905 54.553 30.0814 54.6591 29.5966 54.6591C29.1042 54.6591 28.6894 54.553 28.3523 54.3409C28.0152 54.125 27.7595 53.8409 27.5852 53.4886C27.411 53.1326 27.3239 52.7424 27.3239 52.3182ZM28.483 51.7045V52.3182C28.483 52.6705 28.5663 52.9867 28.733 53.267C28.8996 53.5436 29.1875 53.6818 29.5966 53.6818C29.9943 53.6818 30.2746 53.5436 30.4375 53.267C30.6042 52.9867 30.6875 52.6705 30.6875 52.3182V51.7045C30.6875 51.3523 30.608 51.0379 30.4489 50.7614C30.2898 50.4811 30.0057 50.3409 29.5966 50.3409C29.1989 50.3409 28.9129 50.4811 28.7386 50.7614C28.5682 51.0379 28.483 51.3523 28.483 51.7045ZM21.5284 45.6591V45.0455C21.5284 44.6212 21.6155 44.233 21.7898 43.8807C21.9678 43.5246 22.2254 43.2405 22.5625 43.0284C22.9034 42.8125 23.3163 42.7045 23.8011 42.7045C24.2936 42.7045 24.7064 42.8125 25.0398 43.0284C25.3731 43.2405 25.625 43.5246 25.7955 43.8807C25.9659 44.233 26.0511 44.6212 26.0511 45.0455V45.6591C26.0511 46.0833 25.964 46.4735 25.7898 46.8295C25.6193 47.1818 25.3655 47.4659 25.0284 47.6818C24.6951 47.8939 24.286 48 23.8011 48C23.3087 48 22.8939 47.8939 22.5568 47.6818C22.2197 47.4659 21.964 47.1818 21.7898 46.8295C21.6155 46.4735 21.5284 46.0833 21.5284 45.6591ZM22.6875 45.0455V45.6591C22.6875 46.0114 22.7708 46.3277 22.9375 46.608C23.1042 46.8845 23.392 47.0227 23.8011 47.0227C24.1989 47.0227 24.4792 46.8845 24.642 46.608C24.8087 46.3277 24.892 46.0114 24.892 45.6591V45.0455C24.892 44.6932 24.8125 44.3788 24.6534 44.1023C24.4943 43.822 24.2102 43.6818 23.8011 43.6818C23.4034 43.6818 23.1174 43.822 22.9432 44.1023C22.7727 44.3788 22.6875 44.6932 22.6875 45.0455ZM21.9602 54.5L29.9602 42.8636H31.2557L23.2557 54.5H21.9602Z" fill="white"/>
<line x1="50.5" y1="56" x2="562.5" y2="56" stroke="white" stroke-linecap="round" stroke-dasharray="4 4"/>
<path d="M1.20455 94.5V93.4773L5.04545 89.2727C5.49621 88.7803 5.86742 88.3523 6.15909 87.9886C6.45076 87.6212 6.66667 87.2765 6.80682 86.9545C6.95076 86.6288 7.02273 86.2879 7.02273 85.9318C7.02273 85.5227 6.92424 85.1686 6.72727 84.8693C6.53409 84.5701 6.26894 84.339 5.93182 84.1761C5.5947 84.0133 5.21591 83.9318 4.79545 83.9318C4.34848 83.9318 3.95833 84.0246 3.625 84.2102C3.29545 84.392 3.03977 84.6477 2.85795 84.9773C2.67992 85.3068 2.59091 85.6932 2.59091 86.1364H1.25C1.25 85.4545 1.4072 84.8561 1.72159 84.3409C2.03598 83.8258 2.46402 83.4242 3.00568 83.1364C3.55114 82.8485 4.16288 82.7045 4.84091 82.7045C5.52273 82.7045 6.12689 82.8485 6.65341 83.1364C7.17992 83.4242 7.5928 83.8125 7.89205 84.3011C8.19129 84.7898 8.34091 85.3333 8.34091 85.9318C8.34091 86.3598 8.26326 86.7784 8.10795 87.1875C7.95644 87.5928 7.69129 88.0455 7.3125 88.5455C6.9375 89.0417 6.41667 89.6477 5.75 90.3636L3.13636 93.1591V93.25H8.54545V94.5H1.20455ZM14.6875 94.6591C13.8314 94.6591 13.1023 94.4261 12.5 93.9602C11.8977 93.4905 11.4375 92.8106 11.1193 91.9205C10.8011 91.0265 10.642 89.947 10.642 88.6818C10.642 87.4242 10.8011 86.3504 11.1193 85.4602C11.4413 84.5663 11.9034 83.8845 12.5057 83.4148C13.1117 82.9413 13.839 82.7045 14.6875 82.7045C15.536 82.7045 16.2614 82.9413 16.8636 83.4148C17.4697 83.8845 17.9318 84.5663 18.25 85.4602C18.572 86.3504 18.733 87.4242 18.733 88.6818C18.733 89.947 18.5739 91.0265 18.2557 91.9205C17.9375 92.8106 17.4773 93.4905 16.875 93.9602C16.2727 94.4261 15.5436 94.6591 14.6875 94.6591ZM14.6875 93.4091C15.536 93.4091 16.1951 93 16.6648 92.1818C17.1345 91.3636 17.3693 90.197 17.3693 88.6818C17.3693 87.6742 17.2614 86.8163 17.0455 86.108C16.8333 85.3996 16.5265 84.8598 16.125 84.4886C15.7273 84.1174 15.2481 83.9318 14.6875 83.9318C13.8466 83.9318 13.1894 84.3466 12.7159 85.1761C12.2424 86.0019 12.0057 87.1705 12.0057 88.6818C12.0057 89.6894 12.1117 90.5455 12.3239 91.25C12.536 91.9545 12.8409 92.4905 13.2386 92.858C13.6402 93.2254 14.1231 93.4091 14.6875 93.4091ZM26.8239 92.3182V91.7045C26.8239 91.2803 26.911 90.892 27.0852 90.5398C27.2633 90.1837 27.5208 89.8996 27.858 89.6875C28.1989 89.4716 28.6117 89.3636 29.0966 89.3636C29.589 89.3636 30.0019 89.4716 30.3352 89.6875C30.6686 89.8996 30.9205 90.1837 31.0909 90.5398C31.2614 90.892 31.3466 91.2803 31.3466 91.7045V92.3182C31.3466 92.7424 31.2595 93.1326 31.0852 93.4886C30.9148 93.8409 30.661 94.125 30.3239 94.3409C29.9905 94.553 29.5814 94.6591 29.0966 94.6591C28.6042 94.6591 28.1894 94.553 27.8523 94.3409C27.5152 94.125 27.2595 93.8409 27.0852 93.4886C26.911 93.1326 26.8239 92.7424 26.8239 92.3182ZM27.983 91.7045V92.3182C27.983 92.6705 28.0663 92.9867 28.233 93.267C28.3996 93.5436 28.6875 93.6818 29.0966 93.6818C29.4943 93.6818 29.7746 93.5436 29.9375 93.267C30.1042 92.9867 30.1875 92.6705 30.1875 92.3182V91.7045C30.1875 91.3523 30.108 91.0379 29.9489 90.7614C29.7898 90.4811 29.5057 90.3409 29.0966 90.3409C28.6989 90.3409 28.4129 90.4811 28.2386 90.7614C28.0682 91.0379 27.983 91.3523 27.983 91.7045ZM21.0284 85.6591V85.0455C21.0284 84.6212 21.1155 84.233 21.2898 83.8807C21.4678 83.5246 21.7254 83.2405 22.0625 83.0284C22.4034 82.8125 22.8163 82.7045 23.3011 82.7045C23.7936 82.7045 24.2064 82.8125 24.5398 83.0284C24.8731 83.2405 25.125 83.5246 25.2955 83.8807C25.4659 84.233 25.5511 84.6212 25.5511 85.0455V85.6591C25.5511 86.0833 25.464 86.4735 25.2898 86.8295C25.1193 87.1818 24.8655 87.4659 24.5284 87.6818C24.1951 87.8939 23.786 88 23.3011 88C22.8087 88 22.3939 87.8939 22.0568 87.6818C21.7197 87.4659 21.464 87.1818 21.2898 86.8295C21.1155 86.4735 21.0284 86.0833 21.0284 85.6591ZM22.1875 85.0455V85.6591C22.1875 86.0114 22.2708 86.3277 22.4375 86.608C22.6042 86.8845 22.892 87.0227 23.3011 87.0227C23.6989 87.0227 23.9792 86.8845 24.142 86.608C24.3087 86.3277 24.392 86.0114 24.392 85.6591V85.0455C24.392 84.6932 24.3125 84.3788 24.1534 84.1023C23.9943 83.822 23.7102 83.6818 23.3011 83.6818C22.9034 83.6818 22.6174 83.822 22.4432 84.1023C22.2727 84.3788 22.1875 84.6932 22.1875 85.0455ZM21.4602 94.5L29.4602 82.8636H30.7557L22.7557 94.5H21.4602Z" fill="white"/>
<line x1="49.5" y1="96" x2="562.5" y2="96" stroke="white" stroke-linecap="round" stroke-dasharray="4 4"/>
<path d="M5.29545 122.864V134.5H3.88636V124.341H3.81818L0.977273 126.227V124.795L3.88636 122.864H5.29545ZM12.4375 134.659C11.5814 134.659 10.8523 134.426 10.25 133.96C9.64773 133.491 9.1875 132.811 8.86932 131.92C8.55114 131.027 8.39205 129.947 8.39205 128.682C8.39205 127.424 8.55114 126.35 8.86932 125.46C9.19129 124.566 9.65341 123.884 10.2557 123.415C10.8617 122.941 11.589 122.705 12.4375 122.705C13.286 122.705 14.0114 122.941 14.6136 123.415C15.2197 123.884 15.6818 124.566 16 125.46C16.322 126.35 16.483 127.424 16.483 128.682C16.483 129.947 16.3239 131.027 16.0057 131.92C15.6875 132.811 15.2273 133.491 14.625 133.96C14.0227 134.426 13.2936 134.659 12.4375 134.659ZM12.4375 133.409C13.286 133.409 13.9451 133 14.4148 132.182C14.8845 131.364 15.1193 130.197 15.1193 128.682C15.1193 127.674 15.0114 126.816 14.7955 126.108C14.5833 125.4 14.2765 124.86 13.875 124.489C13.4773 124.117 12.9981 123.932 12.4375 123.932C11.5966 123.932 10.9394 124.347 10.4659 125.176C9.99242 126.002 9.75568 127.17 9.75568 128.682C9.75568 129.689 9.86174 130.545 10.0739 131.25C10.286 131.955 10.5909 132.491 10.9886 132.858C11.3902 133.225 11.8731 133.409 12.4375 133.409ZM24.5739 132.318V131.705C24.5739 131.28 24.661 130.892 24.8352 130.54C25.0133 130.184 25.2708 129.9 25.608 129.688C25.9489 129.472 26.3617 129.364 26.8466 129.364C27.339 129.364 27.7519 129.472 28.0852 129.688C28.4186 129.9 28.6705 130.184 28.8409 130.54C29.0114 130.892 29.0966 131.28 29.0966 131.705V132.318C29.0966 132.742 29.0095 133.133 28.8352 133.489C28.6648 133.841 28.411 134.125 28.0739 134.341C27.7405 134.553 27.3314 134.659 26.8466 134.659C26.3542 134.659 25.9394 134.553 25.6023 134.341C25.2652 134.125 25.0095 133.841 24.8352 133.489C24.661 133.133 24.5739 132.742 24.5739 132.318ZM25.733 131.705V132.318C25.733 132.67 25.8163 132.987 25.983 133.267C26.1496 133.544 26.4375 133.682 26.8466 133.682C27.2443 133.682 27.5246 133.544 27.6875 133.267C27.8542 132.987 27.9375 132.67 27.9375 132.318V131.705C27.9375 131.352 27.858 131.038 27.6989 130.761C27.5398 130.481 27.2557 130.341 26.8466 130.341C26.4489 130.341 26.1629 130.481 25.9886 130.761C25.8182 131.038 25.733 131.352 25.733 131.705ZM18.7784 125.659V125.045C18.7784 124.621 18.8655 124.233 19.0398 123.881C19.2178 123.525 19.4754 123.241 19.8125 123.028C20.1534 122.812 20.5663 122.705 21.0511 122.705C21.5436 122.705 21.9564 122.812 22.2898 123.028C22.6231 123.241 22.875 123.525 23.0455 123.881C23.2159 124.233 23.3011 124.621 23.3011 125.045V125.659C23.3011 126.083 23.214 126.473 23.0398 126.83C22.8693 127.182 22.6155 127.466 22.2784 127.682C21.9451 127.894 21.536 128 21.0511 128C20.5587 128 20.1439 127.894 19.8068 127.682C19.4697 127.466 19.214 127.182 19.0398 126.83C18.8655 126.473 18.7784 126.083 18.7784 125.659ZM19.9375 125.045V125.659C19.9375 126.011 20.0208 126.328 20.1875 126.608C20.3542 126.884 20.642 127.023 21.0511 127.023C21.4489 127.023 21.7292 126.884 21.892 126.608C22.0587 126.328 22.142 126.011 22.142 125.659V125.045C22.142 124.693 22.0625 124.379 21.9034 124.102C21.7443 123.822 21.4602 123.682 21.0511 123.682C20.6534 123.682 20.3674 123.822 20.1932 124.102C20.0227 124.379 19.9375 124.693 19.9375 125.045ZM19.2102 134.5L27.2102 122.864H28.5057L20.5057 134.5H19.2102Z" fill="white"/>
<line x1="47.5" y1="136" x2="562.5" y2="136" stroke="white" stroke-linecap="round" stroke-dasharray="4 4"/>
<path d="M5 174.659C4.14394 174.659 3.41477 174.426 2.8125 173.96C2.21023 173.491 1.75 172.811 1.43182 171.92C1.11364 171.027 0.954545 169.947 0.954545 168.682C0.954545 167.424 1.11364 166.35 1.43182 165.46C1.75379 164.566 2.21591 163.884 2.81818 163.415C3.42424 162.941 4.15152 162.705 5 162.705C5.84848 162.705 6.57386 162.941 7.17614 163.415C7.7822 163.884 8.24432 164.566 8.5625 165.46C8.88447 166.35 9.04545 167.424 9.04545 168.682C9.04545 169.947 8.88636 171.027 8.56818 171.92C8.25 172.811 7.78977 173.491 7.1875 173.96C6.58523 174.426 5.85606 174.659 5 174.659ZM5 173.409C5.84848 173.409 6.50758 173 6.97727 172.182C7.44697 171.364 7.68182 170.197 7.68182 168.682C7.68182 167.674 7.57386 166.816 7.35795 166.108C7.14583 165.4 6.83902 164.86 6.4375 164.489C6.03977 164.117 5.56061 163.932 5 163.932C4.15909 163.932 3.50189 164.347 3.02841 165.176C2.55492 166.002 2.31818 167.17 2.31818 168.682C2.31818 169.689 2.42424 170.545 2.63636 171.25C2.84848 171.955 3.15341 172.491 3.55114 172.858C3.95265 173.225 4.43561 173.409 5 173.409ZM17.1364 172.318V171.705C17.1364 171.28 17.2235 170.892 17.3977 170.54C17.5758 170.184 17.8333 169.9 18.1705 169.688C18.5114 169.472 18.9242 169.364 19.4091 169.364C19.9015 169.364 20.3144 169.472 20.6477 169.688C20.9811 169.9 21.233 170.184 21.4034 170.54C21.5739 170.892 21.6591 171.28 21.6591 171.705V172.318C21.6591 172.742 21.572 173.133 21.3977 173.489C21.2273 173.841 20.9735 174.125 20.6364 174.341C20.303 174.553 19.8939 174.659 19.4091 174.659C18.9167 174.659 18.5019 174.553 18.1648 174.341C17.8277 174.125 17.572 173.841 17.3977 173.489C17.2235 173.133 17.1364 172.742 17.1364 172.318ZM18.2955 171.705V172.318C18.2955 172.67 18.3788 172.987 18.5455 173.267C18.7121 173.544 19 173.682 19.4091 173.682C19.8068 173.682 20.0871 173.544 20.25 173.267C20.4167 172.987 20.5 172.67 20.5 172.318V171.705C20.5 171.352 20.4205 171.038 20.2614 170.761C20.1023 170.481 19.8182 170.341 19.4091 170.341C19.0114 170.341 18.7254 170.481 18.5511 170.761C18.3807 171.038 18.2955 171.352 18.2955 171.705ZM11.3409 165.659V165.045C11.3409 164.621 11.428 164.233 11.6023 163.881C11.7803 163.525 12.0379 163.241 12.375 163.028C12.7159 162.812 13.1288 162.705 13.6136 162.705C14.1061 162.705 14.5189 162.812 14.8523 163.028C15.1856 163.241 15.4375 163.525 15.608 163.881C15.7784 164.233 15.8636 164.621 15.8636 165.045V165.659C15.8636 166.083 15.7765 166.473 15.6023 166.83C15.4318 167.182 15.178 167.466 14.8409 167.682C14.5076 167.894 14.0985 168 13.6136 168C13.1212 168 12.7064 167.894 12.3693 167.682C12.0322 167.466 11.7765 167.182 11.6023 166.83C11.428 166.473 11.3409 166.083 11.3409 165.659ZM12.5 165.045V165.659C12.5 166.011 12.5833 166.328 12.75 166.608C12.9167 166.884 13.2045 167.023 13.6136 167.023C14.0114 167.023 14.2917 166.884 14.4545 166.608C14.6212 166.328 14.7045 166.011 14.7045 165.659V165.045C14.7045 164.693 14.625 164.379 14.4659 164.102C14.3068 163.822 14.0227 163.682 13.6136 163.682C13.2159 163.682 12.9299 163.822 12.7557 164.102C12.5852 164.379 12.5 164.693 12.5 165.045ZM11.7727 174.5L19.7727 162.864H21.0682L13.0682 174.5H11.7727Z" fill="white"/>
<line x1="47.5" y1="176" x2="562.5" y2="176" stroke="white" stroke-linecap="round" stroke-dasharray="4 4"/>
<path d="M90.1136 202.864V214.5H88.7045V204.114H82.8409V214.5H81.4318V202.864H90.1136ZM98.6151 209.523V210.773H93.7969V209.523H98.6151ZM94.1151 205.773V214.5H92.7741V205.773H94.1151ZM99.6378 205.773V214.5H98.2969V205.773H99.6378Z" fill="white"/>
<path d="M148.076 214.5V202.864H152.144C152.954 202.864 153.623 203.004 154.149 203.284C154.676 203.561 155.068 203.934 155.326 204.403C155.583 204.869 155.712 205.386 155.712 205.955C155.712 206.455 155.623 206.867 155.445 207.193C155.271 207.519 155.04 207.777 154.752 207.966C154.468 208.155 154.159 208.295 153.826 208.386V208.5C154.182 208.523 154.54 208.648 154.899 208.875C155.259 209.102 155.56 209.428 155.803 209.852C156.045 210.277 156.167 210.795 156.167 211.409C156.167 211.992 156.034 212.517 155.769 212.983C155.504 213.449 155.085 213.818 154.513 214.091C153.941 214.364 153.197 214.5 152.28 214.5H148.076ZM149.485 213.25H152.28C153.201 213.25 153.854 213.072 154.24 212.716C154.631 212.356 154.826 211.92 154.826 211.409C154.826 211.015 154.725 210.652 154.524 210.318C154.324 209.981 154.038 209.712 153.667 209.511C153.295 209.307 152.856 209.205 152.348 209.205H149.485V213.25ZM149.485 207.977H152.098C152.523 207.977 152.905 207.894 153.246 207.727C153.591 207.561 153.863 207.326 154.064 207.023C154.269 206.72 154.371 206.364 154.371 205.955C154.371 205.443 154.193 205.009 153.837 204.653C153.481 204.294 152.917 204.114 152.144 204.114H149.485V207.977ZM157.8 207.023V205.773H164.891V207.023H162.027V214.5H160.686V207.023H157.8Z" fill="white"/>
<path d="M222.106 206.5H220.697C220.614 206.095 220.468 205.739 220.26 205.432C220.055 205.125 219.805 204.867 219.51 204.659C219.218 204.447 218.894 204.288 218.538 204.182C218.182 204.076 217.811 204.023 217.424 204.023C216.72 204.023 216.082 204.201 215.51 204.557C214.941 204.913 214.489 205.438 214.152 206.131C213.818 206.824 213.652 207.674 213.652 208.682C213.652 209.689 213.818 210.54 214.152 211.233C214.489 211.926 214.941 212.451 215.51 212.807C216.082 213.163 216.72 213.341 217.424 213.341C217.811 213.341 218.182 213.288 218.538 213.182C218.894 213.076 219.218 212.919 219.51 212.71C219.805 212.498 220.055 212.239 220.26 211.932C220.468 211.621 220.614 211.265 220.697 210.864H222.106C222 211.458 221.807 211.991 221.527 212.46C221.246 212.93 220.898 213.33 220.481 213.659C220.065 213.985 219.597 214.233 219.078 214.403C218.563 214.574 218.012 214.659 217.424 214.659C216.432 214.659 215.549 214.417 214.777 213.932C214.004 213.447 213.396 212.758 212.953 211.864C212.51 210.97 212.288 209.909 212.288 208.682C212.288 207.455 212.51 206.394 212.953 205.5C213.396 204.606 214.004 203.917 214.777 203.432C215.549 202.947 216.432 202.705 217.424 202.705C218.012 202.705 218.563 202.79 219.078 202.96C219.597 203.131 220.065 203.381 220.481 203.71C220.898 204.036 221.246 204.434 221.527 204.903C221.807 205.369 222 205.902 222.106 206.5ZM224.201 217.773V205.773H225.497V207.159H225.656C225.754 207.008 225.891 206.814 226.065 206.58C226.243 206.341 226.497 206.129 226.826 205.943C227.16 205.754 227.61 205.659 228.179 205.659C228.914 205.659 229.561 205.843 230.122 206.21C230.682 206.578 231.12 207.098 231.434 207.773C231.749 208.447 231.906 209.242 231.906 210.159C231.906 211.083 231.749 211.884 231.434 212.562C231.12 213.237 230.684 213.759 230.128 214.131C229.571 214.498 228.929 214.682 228.201 214.682C227.641 214.682 227.192 214.589 226.855 214.403C226.518 214.214 226.258 214 226.076 213.761C225.895 213.519 225.754 213.318 225.656 213.159H225.542V217.773H224.201ZM225.52 210.136C225.52 210.795 225.616 211.377 225.809 211.881C226.003 212.381 226.285 212.773 226.656 213.057C227.027 213.337 227.482 213.477 228.02 213.477C228.58 213.477 229.048 213.33 229.423 213.034C229.802 212.735 230.086 212.333 230.275 211.83C230.468 211.322 230.565 210.758 230.565 210.136C230.565 209.523 230.47 208.97 230.281 208.477C230.095 207.981 229.813 207.589 229.434 207.301C229.059 207.009 228.588 206.864 228.02 206.864C227.474 206.864 227.016 207.002 226.645 207.278C226.273 207.551 225.993 207.934 225.804 208.426C225.614 208.915 225.52 209.485 225.52 210.136Z" fill="white"/>
<path d="M280.523 202.864H281.932V206.75C281.932 207.326 282.032 207.778 282.233 208.108C282.434 208.434 282.718 208.665 283.085 208.801C283.453 208.934 283.886 209 284.386 209C284.701 209 285.006 208.989 285.301 208.966C285.597 208.939 285.884 208.903 286.165 208.858C286.449 208.812 286.725 208.758 286.994 208.693C287.267 208.629 287.534 208.557 287.795 208.477V209.75C287.542 209.83 287.29 209.902 287.04 209.966C286.794 210.03 286.536 210.085 286.267 210.131C286.002 210.176 285.716 210.212 285.409 210.239C285.102 210.261 284.761 210.273 284.386 210.273C283.583 210.273 282.892 210.157 282.312 209.926C281.737 209.695 281.294 209.322 280.983 208.807C280.676 208.292 280.523 207.606 280.523 206.75V202.864ZM287.614 202.864H289.023V214.5H287.614V202.864ZM291.165 207.023V205.773H298.256V207.023H295.392V214.5H294.051V207.023H291.165Z" fill="white"/>
<path d="M354.78 202.864V214.5H353.371V204.114H347.507V214.5H346.098V202.864H354.78ZM356.941 207.023V205.773H364.032V207.023H361.168V214.5H359.827V207.023H356.941Z" fill="white"/>
<path d="M422.106 206.5H420.697C420.614 206.095 420.468 205.739 420.26 205.432C420.055 205.125 419.805 204.867 419.51 204.659C419.218 204.447 418.894 204.288 418.538 204.182C418.182 204.076 417.811 204.023 417.424 204.023C416.72 204.023 416.082 204.201 415.51 204.557C414.941 204.913 414.489 205.438 414.152 206.131C413.818 206.824 413.652 207.674 413.652 208.682C413.652 209.689 413.818 210.54 414.152 211.233C414.489 211.926 414.941 212.451 415.51 212.807C416.082 213.163 416.72 213.341 417.424 213.341C417.811 213.341 418.182 213.288 418.538 213.182C418.894 213.076 419.218 212.919 419.51 212.71C419.805 212.498 420.055 212.239 420.26 211.932C420.468 211.621 420.614 211.265 420.697 210.864H422.106C422 211.458 421.807 211.991 421.527 212.46C421.246 212.93 420.898 213.33 420.481 213.659C420.065 213.985 419.597 214.233 419.078 214.403C418.563 214.574 418.012 214.659 417.424 214.659C416.432 214.659 415.549 214.417 414.777 213.932C414.004 213.447 413.396 212.758 412.953 211.864C412.51 210.97 412.288 209.909 412.288 208.682C412.288 207.455 412.51 206.394 412.953 205.5C413.396 204.606 414.004 203.917 414.777 203.432C415.549 202.947 416.432 202.705 417.424 202.705C418.012 202.705 418.563 202.79 419.078 202.96C419.597 203.131 420.065 203.381 420.481 203.71C420.898 204.036 421.246 204.434 421.527 204.903C421.807 205.369 422 205.902 422.106 206.5ZM430.679 202.5L431.36 203.318C431.095 203.576 430.789 203.756 430.44 203.858C430.092 203.96 429.698 204.023 429.258 204.045C428.819 204.068 428.33 204.091 427.792 204.114C427.186 204.136 426.684 204.284 426.287 204.557C425.889 204.83 425.582 205.223 425.366 205.739C425.15 206.254 425.012 206.886 424.951 207.636H425.065C425.36 207.091 425.77 206.689 426.292 206.432C426.815 206.174 427.376 206.045 427.974 206.045C428.656 206.045 429.27 206.205 429.815 206.523C430.36 206.841 430.792 207.312 431.11 207.938C431.429 208.562 431.588 209.333 431.588 210.25C431.588 211.163 431.425 211.951 431.099 212.614C430.777 213.277 430.324 213.788 429.741 214.148C429.162 214.504 428.482 214.682 427.701 214.682C426.921 214.682 426.237 214.498 425.65 214.131C425.063 213.759 424.607 213.21 424.281 212.483C423.955 211.752 423.792 210.848 423.792 209.773V208.841C423.792 206.898 424.122 205.424 424.781 204.42C425.444 203.417 426.44 202.898 427.77 202.864C428.239 202.848 428.658 202.845 429.025 202.852C429.393 202.86 429.713 202.843 429.985 202.801C430.258 202.759 430.489 202.659 430.679 202.5ZM427.701 213.477C428.228 213.477 428.681 213.345 429.059 213.08C429.442 212.814 429.735 212.441 429.94 211.96C430.145 211.475 430.247 210.905 430.247 210.25C430.247 209.614 430.143 209.072 429.934 208.625C429.73 208.178 429.436 207.837 429.054 207.602C428.671 207.367 428.213 207.25 427.679 207.25C427.289 207.25 426.938 207.316 426.628 207.449C426.317 207.581 426.052 207.777 425.832 208.034C425.612 208.292 425.442 208.606 425.321 208.977C425.203 209.348 425.141 209.773 425.133 210.25C425.133 211.227 425.362 212.009 425.821 212.597C426.279 213.184 426.906 213.477 427.701 213.477Z" fill="white"/>
<path d="M480.409 214.5V202.864H484.477C485.288 202.864 485.956 203.004 486.483 203.284C487.009 203.561 487.402 203.934 487.659 204.403C487.917 204.869 488.045 205.386 488.045 205.955C488.045 206.455 487.956 206.867 487.778 207.193C487.604 207.519 487.373 207.777 487.085 207.966C486.801 208.155 486.492 208.295 486.159 208.386V208.5C486.515 208.523 486.873 208.648 487.233 208.875C487.593 209.102 487.894 209.428 488.136 209.852C488.379 210.277 488.5 210.795 488.5 211.409C488.5 211.992 488.367 212.517 488.102 212.983C487.837 213.449 487.419 213.818 486.847 214.091C486.275 214.364 485.53 214.5 484.614 214.5H480.409ZM481.818 213.25H484.614C485.534 213.25 486.188 213.072 486.574 212.716C486.964 212.356 487.159 211.92 487.159 211.409C487.159 211.015 487.059 210.652 486.858 210.318C486.657 209.981 486.371 209.712 486 209.511C485.629 209.307 485.189 209.205 484.682 209.205H481.818V213.25ZM481.818 207.977H484.432C484.856 207.977 485.239 207.894 485.58 207.727C485.924 207.561 486.197 207.326 486.398 207.023C486.602 206.72 486.705 206.364 486.705 205.955C486.705 205.443 486.527 205.009 486.17 204.653C485.814 204.294 485.25 204.114 484.477 204.114H481.818V207.977ZM494.179 214.682C493.361 214.682 492.656 214.489 492.065 214.102C491.474 213.716 491.02 213.184 490.702 212.506C490.384 211.828 490.224 211.053 490.224 210.182C490.224 209.295 490.387 208.513 490.713 207.835C491.043 207.153 491.501 206.621 492.088 206.239C492.679 205.852 493.368 205.659 494.156 205.659C494.77 205.659 495.323 205.773 495.815 206C496.308 206.227 496.711 206.545 497.026 206.955C497.34 207.364 497.535 207.841 497.611 208.386H496.27C496.168 207.989 495.94 207.636 495.588 207.33C495.24 207.019 494.77 206.864 494.179 206.864C493.656 206.864 493.198 207 492.804 207.273C492.414 207.542 492.109 207.922 491.889 208.415C491.673 208.903 491.565 209.477 491.565 210.136C491.565 210.811 491.671 211.398 491.884 211.898C492.099 212.398 492.402 212.786 492.793 213.062C493.187 213.339 493.649 213.477 494.179 213.477C494.527 213.477 494.844 213.417 495.128 213.295C495.412 213.174 495.652 213 495.849 212.773C496.046 212.545 496.187 212.273 496.27 211.955H497.611C497.535 212.47 497.348 212.934 497.048 213.347C496.753 213.756 496.361 214.081 495.872 214.324C495.387 214.562 494.823 214.682 494.179 214.682Z" fill="white"/>
</svg>
