<svg width="265" height="256" viewBox="0 0 265 256" fill="none" xmlns="http://www.w3.org/2000/svg">
<rect width="264.5" height="40" rx="8" fill="#707070"/>
<path d="M23.2188 25L19.7188 20.3267H18.4659V25H17.233V14.8182H18.4659V19.233H19.0028L23.0795 14.8182H24.5511L20.4347 19.2926L24.6903 25H23.2188ZM30.0621 25V17.3636H33.1843C34.0063 17.3636 34.6592 17.5492 35.1431 17.9205C35.627 18.2917 35.869 18.7822 35.869 19.392C35.869 19.8561 35.7314 20.2157 35.4563 20.4709C35.1812 20.7228 34.8282 20.8935 34.3974 20.983C34.6791 21.0227 34.9525 21.1222 35.2177 21.2812C35.4862 21.4403 35.7082 21.6591 35.8839 21.9375C36.0595 22.2126 36.1474 22.5507 36.1474 22.9517C36.1474 23.3428 36.0479 23.6925 35.8491 24.0007C35.6502 24.3089 35.3652 24.5526 34.994 24.7315C34.6228 24.9105 34.1786 25 33.6616 25H30.0621ZM31.1758 23.9261H33.6616C34.0659 23.9261 34.3825 23.83 34.6112 23.6378C34.8398 23.4455 34.9542 23.1837 34.9542 22.8523C34.9542 22.4579 34.8398 22.148 34.6112 21.9226C34.3825 21.6939 34.0659 21.5795 33.6616 21.5795H31.1758V23.9261ZM31.1758 20.5653H33.1843C33.4992 20.5653 33.7693 20.5223 33.9947 20.4361C34.2201 20.3466 34.3924 20.2206 34.5117 20.0582C34.6344 19.8925 34.6957 19.697 34.6957 19.4716C34.6957 19.1501 34.5614 18.8982 34.293 18.7159C34.0245 18.5303 33.6549 18.4375 33.1843 18.4375H31.1758V20.5653ZM38.9377 20.1278H41.1252C42.0201 20.1278 42.7045 20.3549 43.1784 20.8089C43.6524 21.263 43.8894 21.8381 43.8894 22.5341C43.8894 22.9915 43.7833 23.4074 43.5712 23.782C43.3591 24.1532 43.0475 24.4498 42.6365 24.6719C42.2256 24.8906 41.7218 25 41.1252 25H37.9235V17.3636H39.0968V23.9062H41.1252C41.5892 23.9062 41.9703 23.7836 42.2686 23.5384C42.5669 23.2931 42.7161 22.9782 42.7161 22.5938C42.7161 22.1894 42.5669 21.8596 42.2686 21.6044C41.9703 21.3492 41.5892 21.2216 41.1252 21.2216H38.9377V20.1278ZM45.1025 25V17.3636H46.2757V25H45.1025ZM48.4235 25V17.3636H54.4292V25H53.2559V18.4574H49.5968V25H48.4235ZM59.6742 25.1591C58.9848 25.1591 58.3799 24.995 57.8596 24.6669C57.3425 24.3388 56.9382 23.8797 56.6465 23.2898C56.3581 22.6998 56.214 22.0104 56.214 21.2216C56.214 20.4261 56.3581 19.7318 56.6465 19.1385C56.9382 18.5452 57.3425 18.0845 57.8596 17.7564C58.3799 17.4283 58.9848 17.2642 59.6742 17.2642C60.3636 17.2642 60.9668 17.4283 61.4838 17.7564C62.0042 18.0845 62.4086 18.5452 62.6969 19.1385C62.9886 19.7318 63.1344 20.4261 63.1344 21.2216C63.1344 22.0104 62.9886 22.6998 62.6969 23.2898C62.4086 23.8797 62.0042 24.3388 61.4838 24.6669C60.9668 24.995 60.3636 25.1591 59.6742 25.1591ZM59.6742 24.1051C60.1979 24.1051 60.6287 23.9709 60.9668 23.7024C61.3049 23.4339 61.5551 23.081 61.7175 22.6435C61.8799 22.206 61.9611 21.732 61.9611 21.2216C61.9611 20.7112 61.8799 20.2356 61.7175 19.7947C61.5551 19.3539 61.3049 18.9976 60.9668 18.7259C60.6287 18.4541 60.1979 18.3182 59.6742 18.3182C59.1505 18.3182 58.7196 18.4541 58.3816 18.7259C58.0435 18.9976 57.7933 19.3539 57.6309 19.7947C57.4685 20.2356 57.3873 20.7112 57.3873 21.2216C57.3873 21.732 57.4685 22.206 57.6309 22.6435C57.7933 23.081 58.0435 23.4339 58.3816 23.7024C58.7196 23.9709 59.1505 24.1051 59.6742 24.1051ZM64.2493 25V23.9062H64.5277C64.7564 23.9062 64.947 23.8615 65.0994 23.772C65.2519 23.6792 65.3745 23.5185 65.4673 23.2898C65.5634 23.0578 65.6364 22.7363 65.6861 22.3253C65.7391 21.911 65.7772 21.384 65.8004 20.7443L65.9396 17.3636H71.0305V25H69.8572V18.4574H67.0533L66.9339 21.1818C66.9074 21.8082 66.8511 22.3601 66.7649 22.8374C66.6821 23.3113 66.5545 23.709 66.3821 24.0305C66.2131 24.352 65.9877 24.594 65.706 24.7564C65.4242 24.9188 65.0713 25 64.647 25H64.2493ZM78.294 20.6449V21.7386H74.0781V20.6449H78.294ZM74.3565 17.3636V25H73.1832V17.3636H74.3565ZM79.1889 17.3636V25H78.0156V17.3636H79.1889ZM84.5334 25.1591C83.7976 25.1591 83.1629 24.9967 82.6293 24.6719C82.099 24.3438 81.6896 23.8864 81.4013 23.2997C81.1162 22.7098 80.9737 22.0237 80.9737 21.2415C80.9737 20.4593 81.1162 19.7699 81.4013 19.1733C81.6896 18.5734 82.0907 18.1061 82.6044 17.7713C83.1214 17.4332 83.7247 17.2642 84.4141 17.2642C84.8118 17.2642 85.2045 17.3305 85.5923 17.4631C85.9801 17.5956 86.3331 17.8111 86.6513 18.1094C86.9695 18.4044 87.223 18.7955 87.4119 19.2827C87.6009 19.7699 87.6953 20.3698 87.6953 21.0824V21.5795H81.8089V20.5653H86.5021C86.5021 20.1345 86.416 19.75 86.2436 19.4119C86.0746 19.0739 85.8326 18.8071 85.5178 18.6115C85.2062 18.416 84.8383 18.3182 84.4141 18.3182C83.9467 18.3182 83.5424 18.4342 83.201 18.6662C82.8629 18.8949 82.6027 19.1932 82.4205 19.5611C82.2382 19.929 82.147 20.3234 82.147 20.7443V21.4205C82.147 21.9972 82.2464 22.486 82.4453 22.8871C82.6475 23.2848 82.9276 23.5881 83.2855 23.7969C83.6435 24.0024 84.0594 24.1051 84.5334 24.1051C84.8416 24.1051 85.12 24.062 85.3686 23.9759C85.6205 23.8864 85.8376 23.7538 86.0199 23.5781C86.2022 23.3991 86.343 23.1771 86.4425 22.9119L87.576 23.2301C87.4567 23.6146 87.2562 23.9527 86.9744 24.2443C86.6927 24.5327 86.3447 24.758 85.9304 24.9205C85.5161 25.0795 85.0504 25.1591 84.5334 25.1591ZM94.5909 20.6449V21.7386H90.375V20.6449H94.5909ZM90.6534 17.3636V25H89.4801V17.3636H90.6534ZM95.4858 17.3636V25H94.3125V17.3636H95.4858ZM98.8018 23.2699L102.481 17.3636H103.833V25H102.66V19.0938L99.0007 25H97.6286V17.3636H98.8018V23.2699ZM109.641 20.7045V21.7983H105.604V20.7045H109.641ZM106.599 17.3636V25H105.425V17.3636H106.599ZM111.988 25.1591C111.298 25.1591 110.693 24.995 110.173 24.6669C109.656 24.3388 109.252 23.8797 108.96 23.2898C108.672 22.6998 108.528 22.0104 108.528 21.2216C108.528 20.4261 108.672 19.7318 108.96 19.1385C109.252 18.5452 109.656 18.0845 110.173 17.7564C110.693 17.4283 111.298 17.2642 111.988 17.2642C112.677 17.2642 113.28 17.4283 113.797 17.7564C114.318 18.0845 114.722 18.5452 115.01 19.1385C115.302 19.7318 115.448 20.4261 115.448 21.2216C115.448 22.0104 115.302 22.6998 115.01 23.2898C114.722 23.8797 114.318 24.3388 113.797 24.6669C113.28 24.995 112.677 25.1591 111.988 25.1591ZM111.988 24.1051C112.511 24.1051 112.942 23.9709 113.28 23.7024C113.618 23.4339 113.869 23.081 114.031 22.6435C114.193 22.206 114.275 21.732 114.275 21.2216C114.275 20.7112 114.193 20.2356 114.031 19.7947C113.869 19.3539 113.618 18.9976 113.28 18.7259C112.942 18.4541 112.511 18.3182 111.988 18.3182C111.464 18.3182 111.033 18.4541 110.695 18.7259C110.357 18.9976 110.107 19.3539 109.944 19.7947C109.782 20.2356 109.701 20.7112 109.701 21.2216C109.701 21.732 109.782 22.206 109.944 22.6435C110.107 23.081 110.357 23.4339 110.695 23.7024C111.033 23.9709 111.464 24.1051 111.988 24.1051Z" fill="white"/>
<path d="M10.6511 62.3636V74H9.242V63.8409H9.17382L6.33291 65.7273V64.2955L9.242 62.3636H10.6511ZM16.465 74.0909C16.1847 74.0909 15.9442 73.9905 15.7434 73.7898C15.5427 73.589 15.4423 73.3485 15.4423 73.0682C15.4423 72.7879 15.5427 72.5473 15.7434 72.3466C15.9442 72.1458 16.1847 72.0455 16.465 72.0455C16.7453 72.0455 16.9858 72.1458 17.1866 72.3466C17.3874 72.5473 17.4877 72.7879 17.4877 73.0682C17.4877 73.2538 17.4404 73.4242 17.3457 73.5795C17.2548 73.7348 17.1317 73.8598 16.9764 73.9545C16.8249 74.0455 16.6544 74.0909 16.465 74.0909Z" fill="white"/>
<line x1="34.5" y1="75.5" x2="254" y2="75.5" stroke="white" stroke-linecap="round" stroke-dasharray="4 4"/>
<rect y="96" width="264.5" height="34" rx="8" fill="#707070"/>
<path d="M11.233 118V107.818H14.7926C15.5019 107.818 16.0869 107.941 16.5476 108.186C17.0083 108.428 17.3513 108.754 17.5767 109.165C17.8021 109.573 17.9148 110.026 17.9148 110.523C17.9148 110.96 17.8369 111.321 17.6811 111.607C17.5286 111.892 17.3265 112.117 17.0746 112.283C16.826 112.448 16.5559 112.571 16.2642 112.651V112.75C16.5758 112.77 16.889 112.879 17.2038 113.078C17.5187 113.277 17.7822 113.562 17.9943 113.933C18.2064 114.304 18.3125 114.759 18.3125 115.295C18.3125 115.806 18.1965 116.265 17.9645 116.673C17.7325 117.08 17.3662 117.403 16.8658 117.642C16.3653 117.881 15.714 118 14.9119 118H11.233ZM12.4659 116.906H14.9119C15.7173 116.906 16.2891 116.75 16.6271 116.439C16.9685 116.124 17.1392 115.743 17.1392 115.295C17.1392 114.951 17.0514 114.633 16.8757 114.341C16.7 114.046 16.4498 113.811 16.125 113.635C15.8002 113.456 15.4157 113.366 14.9716 113.366H12.4659V116.906ZM12.4659 112.293H14.7528C15.1241 112.293 15.4588 112.22 15.7571 112.074C16.0587 111.928 16.2973 111.723 16.473 111.457C16.652 111.192 16.7415 110.881 16.7415 110.523C16.7415 110.075 16.5857 109.696 16.2741 109.384C15.9626 109.069 15.4688 108.912 14.7926 108.912H12.4659V112.293ZM24.1168 118V110.364H30.1225V118H28.9492V111.457H25.2901V118H24.1168ZM32.2653 120.864V110.364H33.3988V111.577H33.538C33.6242 111.444 33.7435 111.275 33.896 111.07C34.0517 110.861 34.2738 110.675 34.5621 110.513C34.8538 110.347 35.2482 110.264 35.7454 110.264C36.3884 110.264 36.9551 110.425 37.4457 110.746C37.9362 111.068 38.319 111.524 38.5941 112.114C38.8692 112.704 39.0067 113.4 39.0067 114.202C39.0067 115.01 38.8692 115.711 38.5941 116.305C38.319 116.895 37.9379 117.352 37.4506 117.677C36.9634 117.998 36.4016 118.159 35.7653 118.159C35.2747 118.159 34.882 118.078 34.587 117.915C34.292 117.75 34.065 117.562 33.9059 117.354C33.7468 117.142 33.6242 116.966 33.538 116.827H33.4386V120.864H32.2653ZM33.4187 114.182C33.4187 114.759 33.5032 115.267 33.6722 115.708C33.8413 116.146 34.0882 116.489 34.413 116.737C34.7378 116.982 35.1355 117.105 35.6062 117.105C36.0967 117.105 36.506 116.976 36.8342 116.717C37.1656 116.455 37.4142 116.104 37.5799 115.663C37.7489 115.219 37.8335 114.725 37.8335 114.182C37.8335 113.645 37.7506 113.161 37.5849 112.73C37.4225 112.296 37.1755 111.953 36.8441 111.701C36.516 111.446 36.1033 111.318 35.6062 111.318C35.1289 111.318 34.7279 111.439 34.4031 111.681C34.0782 111.92 33.833 112.254 33.6673 112.685C33.5015 113.113 33.4187 113.612 33.4187 114.182ZM43.8988 118.159C43.2094 118.159 42.6045 117.995 42.0842 117.667C41.5671 117.339 41.1628 116.88 40.8711 116.29C40.5827 115.7 40.4386 115.01 40.4386 114.222C40.4386 113.426 40.5827 112.732 40.8711 112.138C41.1628 111.545 41.5671 111.085 42.0842 110.756C42.6045 110.428 43.2094 110.264 43.8988 110.264C44.5882 110.264 45.1914 110.428 45.7085 110.756C46.2288 111.085 46.6332 111.545 46.9215 112.138C47.2132 112.732 47.359 113.426 47.359 114.222C47.359 115.01 47.2132 115.7 46.9215 116.29C46.6332 116.88 46.2288 117.339 45.7085 117.667C45.1914 117.995 44.5882 118.159 43.8988 118.159ZM43.8988 117.105C44.4225 117.105 44.8533 116.971 45.1914 116.702C45.5295 116.434 45.7797 116.081 45.9421 115.643C46.1045 115.206 46.1857 114.732 46.1857 114.222C46.1857 113.711 46.1045 113.236 45.9421 112.795C45.7797 112.354 45.5295 111.998 45.1914 111.726C44.8533 111.454 44.4225 111.318 43.8988 111.318C43.3751 111.318 42.9442 111.454 42.6062 111.726C42.2681 111.998 42.0179 112.354 41.8555 112.795C41.6931 113.236 41.6119 113.711 41.6119 114.222C41.6119 114.732 41.6931 115.206 41.8555 115.643C42.0179 116.081 42.2681 116.434 42.6062 116.702C42.9442 116.971 43.3751 117.105 43.8988 117.105ZM55.1557 110.364V116.906H56.2296V120.466H55.0563V118H49.15V110.364H50.3233V116.906H53.9824V110.364H55.1557ZM61.1564 118.159C60.4206 118.159 59.7859 117.997 59.2523 117.672C58.722 117.344 58.3127 116.886 58.0243 116.3C57.7393 115.71 57.5968 115.024 57.5968 114.241C57.5968 113.459 57.7393 112.77 58.0243 112.173C58.3127 111.573 58.7137 111.106 59.2275 110.771C59.7445 110.433 60.3477 110.264 61.0371 110.264C61.4348 110.264 61.8276 110.33 62.2154 110.463C62.6032 110.596 62.9561 110.811 63.2743 111.109C63.5925 111.404 63.8461 111.795 64.035 112.283C64.2239 112.77 64.3184 113.37 64.3184 114.082V114.58H58.432V113.565H63.1252C63.1252 113.134 63.039 112.75 62.8667 112.412C62.6976 112.074 62.4557 111.807 62.1408 111.612C61.8292 111.416 61.4614 111.318 61.0371 111.318C60.5698 111.318 60.1654 111.434 59.824 111.666C59.486 111.895 59.2258 112.193 59.0435 112.561C58.8612 112.929 58.7701 113.323 58.7701 113.744V114.42C58.7701 114.997 58.8695 115.486 59.0684 115.887C59.2705 116.285 59.5506 116.588 59.9086 116.797C60.2665 117.002 60.6825 117.105 61.1564 117.105C61.4647 117.105 61.7431 117.062 61.9917 116.976C62.2435 116.886 62.4606 116.754 62.6429 116.578C62.8252 116.399 62.9661 116.177 63.0655 115.912L64.199 116.23C64.0797 116.615 63.8792 116.953 63.5975 117.244C63.3158 117.533 62.9677 117.758 62.5534 117.92C62.1391 118.08 61.6735 118.159 61.1564 118.159ZM69.2054 118.159C68.4895 118.159 67.873 117.99 67.356 117.652C66.839 117.314 66.4412 116.848 66.1628 116.255C65.8844 115.662 65.7452 114.984 65.7452 114.222C65.7452 113.446 65.8877 112.762 66.1728 112.168C66.4611 111.572 66.8622 111.106 67.3759 110.771C67.8929 110.433 68.4962 110.264 69.1855 110.264C69.7225 110.264 70.2064 110.364 70.6373 110.562C71.0681 110.761 71.4211 111.04 71.6962 111.398C71.9713 111.756 72.142 112.173 72.2083 112.651H71.035C70.9455 112.303 70.7466 111.994 70.4384 111.726C70.1335 111.454 69.7225 111.318 69.2054 111.318C68.748 111.318 68.347 111.437 68.0023 111.676C67.6609 111.911 67.3941 112.245 67.2019 112.675C67.013 113.103 66.9185 113.605 66.9185 114.182C66.9185 114.772 67.0113 115.286 67.1969 115.723C67.3858 116.161 67.651 116.5 67.9924 116.742C68.3371 116.984 68.7414 117.105 69.2054 117.105C69.5104 117.105 69.7871 117.052 70.0357 116.946C70.2843 116.84 70.4947 116.688 70.6671 116.489C70.8394 116.29 70.9621 116.051 71.035 115.773H72.2083C72.142 116.223 71.9779 116.629 71.7161 116.991C71.4576 117.349 71.1145 117.634 70.687 117.846C70.2627 118.055 69.7689 118.159 69.2054 118.159ZM77.0257 118.159C76.3098 118.159 75.6934 117.99 75.1763 117.652C74.6593 117.314 74.2615 116.848 73.9831 116.255C73.7047 115.662 73.5655 114.984 73.5655 114.222C73.5655 113.446 73.708 112.762 73.9931 112.168C74.2814 111.572 74.6825 111.106 75.1962 110.771C75.7132 110.433 76.3165 110.264 77.0059 110.264C77.5428 110.264 78.0267 110.364 78.4576 110.562C78.8884 110.761 79.2414 111.04 79.5165 111.398C79.7916 111.756 79.9623 112.173 80.0286 112.651H78.8553C78.7658 112.303 78.5669 111.994 78.2587 111.726C77.9538 111.454 77.5428 111.318 77.0257 111.318C76.5684 111.318 76.1673 111.437 75.8226 111.676C75.4812 111.911 75.2144 112.245 75.0222 112.675C74.8333 113.103 74.7388 113.605 74.7388 114.182C74.7388 114.772 74.8316 115.286 75.0172 115.723C75.2061 116.161 75.4713 116.5 75.8127 116.742C76.1574 116.984 76.5617 117.105 77.0257 117.105C77.3307 117.105 77.6074 117.052 77.856 116.946C78.1046 116.84 78.315 116.688 78.4874 116.489C78.6597 116.29 78.7824 116.051 78.8553 115.773H80.0286C79.9623 116.223 79.7982 116.629 79.5364 116.991C79.2779 117.349 78.9348 117.634 78.5073 117.846C78.083 118.055 77.5892 118.159 77.0257 118.159ZM84.9455 118.159C84.2097 118.159 83.575 117.997 83.0414 117.672C82.5111 117.344 82.1017 116.886 81.8134 116.3C81.5283 115.71 81.3858 115.024 81.3858 114.241C81.3858 113.459 81.5283 112.77 81.8134 112.173C82.1017 111.573 82.5028 111.106 83.0165 110.771C83.5336 110.433 84.1368 110.264 84.8262 110.264C85.2239 110.264 85.6167 110.33 86.0044 110.463C86.3922 110.596 86.7452 110.811 87.0634 111.109C87.3816 111.404 87.6351 111.795 87.824 112.283C88.013 112.77 88.1074 113.37 88.1074 114.082V114.58H82.2211V113.565H86.9142C86.9142 113.134 86.8281 112.75 86.6557 112.412C86.4867 112.074 86.2447 111.807 85.9299 111.612C85.6183 111.416 85.2504 111.318 84.8262 111.318C84.3588 111.318 83.9545 111.434 83.6131 111.666C83.275 111.895 83.0149 112.193 82.8326 112.561C82.6503 112.929 82.5591 113.323 82.5591 113.744V114.42C82.5591 114.997 82.6586 115.486 82.8574 115.887C83.0596 116.285 83.3397 116.588 83.6976 116.797C84.0556 117.002 84.4715 117.105 84.9455 117.105C85.2537 117.105 85.5321 117.062 85.7807 116.976C86.0326 116.886 86.2497 116.754 86.432 116.578C86.6143 116.399 86.7551 116.177 86.8546 115.912L87.9881 116.23C87.8688 116.615 87.6683 116.953 87.3865 117.244C87.1048 117.533 86.7568 117.758 86.3425 117.92C85.9282 118.08 85.4625 118.159 84.9455 118.159Z" fill="white"/>
<path d="M10.6511 152.364V164H9.242V153.841H9.17382L6.33291 155.727V154.295L9.242 152.364H10.6511ZM16.465 164.091C16.1847 164.091 15.9442 163.991 15.7434 163.79C15.5427 163.589 15.4423 163.348 15.4423 163.068C15.4423 162.788 15.5427 162.547 15.7434 162.347C15.9442 162.146 16.1847 162.045 16.465 162.045C16.7453 162.045 16.9858 162.146 17.1866 162.347C17.3874 162.547 17.4877 162.788 17.4877 163.068C17.4877 163.254 17.4404 163.424 17.3457 163.58C17.2548 163.735 17.1317 163.86 16.9764 163.955C16.8249 164.045 16.6544 164.091 16.465 164.091Z" fill="white"/>
<line x1="34.5" y1="165.5" x2="254" y2="165.5" stroke="white" stroke-linecap="round" stroke-dasharray="4 4"/>
<rect y="186" width="264.5" height="34" rx="8" fill="#707070"/>
<path d="M14.4943 208.139C13.8381 208.139 13.2531 208.027 12.7393 207.801C12.2289 207.576 11.8229 207.263 11.5213 206.862C11.223 206.457 11.0606 205.988 11.0341 205.455H12.2869C12.3134 205.783 12.4261 206.066 12.625 206.305C12.8239 206.54 13.084 206.722 13.4055 206.852C13.727 206.981 14.0833 207.045 14.4744 207.045C14.9119 207.045 15.2997 206.969 15.6378 206.817C15.9759 206.664 16.241 206.452 16.4332 206.18C16.6255 205.909 16.7216 205.594 16.7216 205.236C16.7216 204.861 16.6288 204.531 16.4432 204.246C16.2576 203.958 15.9858 203.733 15.6278 203.57C15.2699 203.408 14.8324 203.327 14.3153 203.327H13.5V202.233H14.3153C14.7197 202.233 15.0743 202.16 15.3793 202.014C15.6875 201.868 15.9278 201.663 16.1001 201.398C16.2758 201.133 16.3636 200.821 16.3636 200.463C16.3636 200.118 16.2874 199.818 16.1349 199.563C15.9825 199.308 15.767 199.109 15.4886 198.967C15.2135 198.824 14.8887 198.753 14.5142 198.753C14.1629 198.753 13.8314 198.817 13.5199 198.947C13.2116 199.073 12.9598 199.257 12.7642 199.499C12.5687 199.737 12.4626 200.026 12.446 200.364H11.2528C11.2727 199.83 11.4335 199.363 11.7351 198.962C12.0367 198.557 12.4311 198.242 12.9183 198.017C13.4089 197.792 13.9474 197.679 14.5341 197.679C15.1638 197.679 15.7041 197.807 16.1548 198.062C16.6056 198.314 16.9519 198.647 17.1939 199.061C17.4358 199.475 17.5568 199.923 17.5568 200.403C17.5568 200.977 17.406 201.466 17.1044 201.87C16.8061 202.274 16.4001 202.554 15.8864 202.71V202.79C16.5294 202.896 17.0315 203.169 17.3928 203.61C17.754 204.048 17.9347 204.589 17.9347 205.236C17.9347 205.789 17.7839 206.286 17.4822 206.727C17.1839 207.165 16.7763 207.509 16.2592 207.761C15.7422 208.013 15.1539 208.139 14.4943 208.139ZM22.2351 208.179C21.7512 208.179 21.312 208.088 20.9176 207.906C20.5232 207.72 20.21 207.453 19.978 207.105C19.746 206.754 19.63 206.33 19.63 205.832C19.63 205.395 19.7161 205.04 19.8885 204.768C20.0608 204.493 20.2912 204.278 20.5795 204.122C20.8679 203.966 21.1861 203.85 21.5341 203.774C21.8854 203.695 22.2384 203.632 22.593 203.585C23.0571 203.526 23.4332 203.481 23.7216 203.451C24.0133 203.418 24.2254 203.363 24.358 203.287C24.4938 203.211 24.5618 203.078 24.5618 202.889V202.849C24.5618 202.359 24.4276 201.978 24.1591 201.706C23.8939 201.434 23.4912 201.298 22.951 201.298C22.3909 201.298 21.9517 201.421 21.6335 201.666C21.3153 201.911 21.0916 202.173 20.9624 202.452L19.8487 202.054C20.0476 201.59 20.3127 201.229 20.6442 200.97C20.9789 200.708 21.3435 200.526 21.7379 200.423C22.1357 200.317 22.5268 200.264 22.9112 200.264C23.1565 200.264 23.4382 200.294 23.7564 200.354C24.0779 200.41 24.3878 200.528 24.6861 200.707C24.9877 200.886 25.2379 201.156 25.4368 201.517C25.6357 201.878 25.7351 202.362 25.7351 202.969V208H24.5618V206.966H24.5021C24.4226 207.132 24.29 207.309 24.1044 207.498C23.9188 207.687 23.6719 207.848 23.3636 207.98C23.0554 208.113 22.6792 208.179 22.2351 208.179ZM22.4141 207.125C22.8781 207.125 23.2692 207.034 23.5874 206.852C23.9089 206.669 24.1508 206.434 24.3132 206.146C24.4789 205.857 24.5618 205.554 24.5618 205.236V204.162C24.5121 204.222 24.4027 204.276 24.2337 204.326C24.0679 204.372 23.8757 204.414 23.657 204.45C23.4415 204.483 23.2311 204.513 23.0256 204.54C22.8234 204.563 22.6593 204.583 22.5334 204.599C22.2285 204.639 21.9434 204.704 21.6783 204.793C21.4164 204.879 21.2043 205.01 21.0419 205.186C20.8828 205.358 20.8033 205.594 20.8033 205.892C20.8033 206.3 20.9541 206.608 21.2557 206.817C21.5606 207.022 21.9467 207.125 22.4141 207.125ZM27.8766 208V200.364H30.9988C31.8207 200.364 32.4737 200.549 32.9576 200.92C33.4415 201.292 33.6834 201.782 33.6834 202.392C33.6834 202.856 33.5459 203.216 33.2708 203.471C32.9957 203.723 32.6427 203.893 32.2118 203.983C32.4935 204.023 32.767 204.122 33.0321 204.281C33.3006 204.44 33.5227 204.659 33.6983 204.938C33.874 205.213 33.9618 205.551 33.9618 205.952C33.9618 206.343 33.8624 206.692 33.6635 207.001C33.4647 207.309 33.1796 207.553 32.8084 207.732C32.4372 207.911 31.9931 208 31.476 208H27.8766ZM28.9902 206.926H31.476C31.8804 206.926 32.1969 206.83 32.4256 206.638C32.6543 206.446 32.7686 206.184 32.7686 205.852C32.7686 205.458 32.6543 205.148 32.4256 204.923C32.1969 204.694 31.8804 204.58 31.476 204.58H28.9902V206.926ZM28.9902 203.565H30.9988C31.3136 203.565 31.5837 203.522 31.8091 203.436C32.0345 203.347 32.2069 203.221 32.3262 203.058C32.4488 202.893 32.5101 202.697 32.5101 202.472C32.5101 202.15 32.3759 201.898 32.1074 201.716C31.839 201.53 31.4694 201.438 30.9988 201.438H28.9902V203.565ZM38.9396 208.159C38.2038 208.159 37.5691 207.997 37.0355 207.672C36.5052 207.344 36.0959 206.886 35.8075 206.3C35.5225 205.71 35.38 205.024 35.38 204.241C35.38 203.459 35.5225 202.77 35.8075 202.173C36.0959 201.573 36.4969 201.106 37.0107 200.771C37.5277 200.433 38.1309 200.264 38.8203 200.264C39.218 200.264 39.6108 200.33 39.9986 200.463C40.3864 200.596 40.7393 200.811 41.0575 201.109C41.3757 201.404 41.6293 201.795 41.8182 202.283C42.0071 202.77 42.1016 203.37 42.1016 204.082V204.58H36.2152V203.565H40.9084C40.9084 203.134 40.8222 202.75 40.6499 202.412C40.4808 202.074 40.2389 201.807 39.924 201.612C39.6125 201.416 39.2446 201.318 38.8203 201.318C38.353 201.318 37.9486 201.434 37.6072 201.666C37.2692 201.895 37.009 202.193 36.8267 202.561C36.6444 202.929 36.5533 203.323 36.5533 203.744V204.42C36.5533 204.997 36.6527 205.486 36.8516 205.887C37.0537 206.285 37.3338 206.588 37.6918 206.797C38.0497 207.002 38.4657 207.105 38.9396 207.105C39.2479 207.105 39.5263 207.062 39.7749 206.976C40.0268 206.886 40.2438 206.754 40.4261 206.578C40.6084 206.399 40.7493 206.177 40.8487 205.912L41.9822 206.23C41.8629 206.615 41.6624 206.953 41.3807 207.244C41.099 207.533 40.7509 207.758 40.3366 207.92C39.9223 208.08 39.4567 208.159 38.9396 208.159ZM43.8864 210.864V200.364H45.0199V201.577H45.1591C45.2453 201.444 45.3646 201.275 45.517 201.07C45.6728 200.861 45.8949 200.675 46.1832 200.513C46.4749 200.347 46.8693 200.264 47.3665 200.264C48.0095 200.264 48.5762 200.425 49.0668 200.746C49.5573 201.068 49.9401 201.524 50.2152 202.114C50.4903 202.704 50.6278 203.4 50.6278 204.202C50.6278 205.01 50.4903 205.711 50.2152 206.305C49.9401 206.895 49.5589 207.352 49.0717 207.677C48.5845 207.998 48.0227 208.159 47.3864 208.159C46.8958 208.159 46.5031 208.078 46.2081 207.915C45.9131 207.75 45.6861 207.562 45.527 207.354C45.3679 207.142 45.2453 206.966 45.1591 206.827H45.0597V210.864H43.8864ZM45.0398 204.182C45.0398 204.759 45.1243 205.267 45.2933 205.708C45.4624 206.146 45.7093 206.489 46.0341 206.737C46.3589 206.982 46.7566 207.105 47.2273 207.105C47.7178 207.105 48.1271 206.976 48.4553 206.717C48.7867 206.455 49.0353 206.104 49.201 205.663C49.37 205.219 49.4545 204.725 49.4545 204.182C49.4545 203.645 49.3717 203.161 49.206 202.73C49.0436 202.296 48.7966 201.953 48.4652 201.701C48.1371 201.446 47.7244 201.318 47.2273 201.318C46.75 201.318 46.349 201.439 46.0241 201.681C45.6993 201.92 45.4541 202.254 45.2884 202.685C45.1226 203.113 45.0398 203.612 45.0398 204.182ZM52.4176 200.364H53.5909V206.906H56.4744V200.364H57.6477V206.906H60.5312V200.364H61.7045V208H52.4176V200.364ZM67.049 208.159C66.3132 208.159 65.6785 207.997 65.1449 207.672C64.6146 207.344 64.2053 206.886 63.9169 206.3C63.6319 205.71 63.4893 205.024 63.4893 204.241C63.4893 203.459 63.6319 202.77 63.9169 202.173C64.2053 201.573 64.6063 201.106 65.12 200.771C65.6371 200.433 66.2403 200.264 66.9297 200.264C67.3274 200.264 67.7202 200.33 68.108 200.463C68.4957 200.596 68.8487 200.811 69.1669 201.109C69.4851 201.404 69.7386 201.795 69.9276 202.283C70.1165 202.77 70.2109 203.37 70.2109 204.082V204.58H64.3246V203.565H69.0178C69.0178 203.134 68.9316 202.75 68.7592 202.412C68.5902 202.074 68.3482 201.807 68.0334 201.612C67.7218 201.416 67.3539 201.318 66.9297 201.318C66.4624 201.318 66.058 201.434 65.7166 201.666C65.3786 201.895 65.1184 202.193 64.9361 202.561C64.7538 202.929 64.6626 203.323 64.6626 203.744V204.42C64.6626 204.997 64.7621 205.486 64.9609 205.887C65.1631 206.285 65.4432 206.588 65.8011 206.797C66.1591 207.002 66.575 207.105 67.049 207.105C67.3572 207.105 67.6357 207.062 67.8842 206.976C68.1361 206.886 68.3532 206.754 68.5355 206.578C68.7178 206.399 68.8587 206.177 68.9581 205.912L70.0916 206.23C69.9723 206.615 69.7718 206.953 69.4901 207.244C69.2083 207.533 68.8603 207.758 68.446 207.92C68.0317 208.08 67.5661 208.159 67.049 208.159ZM77.1065 203.645V204.739H72.8906V203.645H77.1065ZM73.169 200.364V208H71.9957V200.364H73.169ZM78.0014 200.364V208H76.8281V200.364H78.0014ZM83.2464 208.159C82.5571 208.159 81.9522 207.995 81.4318 207.667C80.9148 207.339 80.5104 206.88 80.2188 206.29C79.9304 205.7 79.7862 205.01 79.7862 204.222C79.7862 203.426 79.9304 202.732 80.2188 202.138C80.5104 201.545 80.9148 201.085 81.4318 200.756C81.9522 200.428 82.5571 200.264 83.2464 200.264C83.9358 200.264 84.5391 200.428 85.0561 200.756C85.5765 201.085 85.9808 201.545 86.2692 202.138C86.5608 202.732 86.7067 203.426 86.7067 204.222C86.7067 205.01 86.5608 205.7 86.2692 206.29C85.9808 206.88 85.5765 207.339 85.0561 207.667C84.5391 207.995 83.9358 208.159 83.2464 208.159ZM83.2464 207.105C83.7701 207.105 84.201 206.971 84.5391 206.702C84.8771 206.434 85.1274 206.081 85.2898 205.643C85.4522 205.206 85.5334 204.732 85.5334 204.222C85.5334 203.711 85.4522 203.236 85.2898 202.795C85.1274 202.354 84.8771 201.998 84.5391 201.726C84.201 201.454 83.7701 201.318 83.2464 201.318C82.7228 201.318 82.2919 201.454 81.9538 201.726C81.6158 201.998 81.3655 202.354 81.2031 202.795C81.0407 203.236 80.9595 203.711 80.9595 204.222C80.9595 204.732 81.0407 205.206 81.2031 205.643C81.3655 206.081 81.6158 206.434 81.9538 206.702C82.2919 206.971 82.7228 207.105 83.2464 207.105Z" fill="white"/>
<path d="M10.6511 242.364V254H9.242V243.841H9.17382L6.33291 245.727V244.295L9.242 242.364H10.6511ZM16.465 254.091C16.1847 254.091 15.9442 253.991 15.7434 253.79C15.5427 253.589 15.4423 253.348 15.4423 253.068C15.4423 252.788 15.5427 252.547 15.7434 252.347C15.9442 252.146 16.1847 252.045 16.465 252.045C16.7453 252.045 16.9858 252.146 17.1866 252.347C17.3874 252.547 17.4877 252.788 17.4877 253.068C17.4877 253.254 17.4404 253.424 17.3457 253.58C17.2548 253.735 17.1317 253.86 16.9764 253.955C16.8249 254.045 16.6544 254.091 16.465 254.091Z" fill="white"/>
<line x1="34.5" y1="255.5" x2="254" y2="255.5" stroke="white" stroke-linecap="round" stroke-dasharray="4 4"/>
</svg>
