<svg width="24" height="24" viewBox="0 0 24 24" fill="none" xmlns="http://www.w3.org/2000/svg">
<g clip-path="url(#clip0_2112_165)">
<path d="M6.69234 20.043H20.6423C20.7827 20.0431 20.9217 20.0155 21.0514 19.9618C21.1811 19.9082 21.2989 19.8295 21.3981 19.7302C21.4974 19.631 21.5761 19.5131 21.6298 19.3834C21.6834 19.2538 21.711 19.1148 21.7109 18.9744V5.02502C21.7109 4.43582 21.2315 3.95642 20.6423 3.95642H6.69294C6.10374 3.95642 5.62434 4.43522 5.62434 5.02502V8.40002C5.62434 8.47338 5.65348 8.54373 5.70535 8.59561C5.75723 8.64748 5.82758 8.67662 5.90094 8.67662C5.9743 8.67662 6.04465 8.64748 6.09652 8.59561C6.1484 8.54373 6.17754 8.47338 6.17754 8.40002V5.02502C6.17785 4.88858 6.23219 4.75783 6.32867 4.66135C6.42514 4.56488 6.5559 4.51054 6.69234 4.51022H20.6423C20.7788 4.51054 20.9095 4.56488 21.006 4.66135C21.1025 4.75783 21.1568 4.88858 21.1571 5.02502V18.975C21.1568 19.1115 21.1025 19.2422 21.006 19.3387C20.9095 19.4352 20.7788 19.4895 20.6423 19.4898H6.69294C6.5565 19.4895 6.42574 19.4352 6.32927 19.3387C6.23279 19.2422 6.17845 19.1115 6.17814 18.975V15.6342C6.17814 15.5609 6.149 15.4905 6.09712 15.4386C6.04525 15.3868 5.9749 15.3576 5.90154 15.3576C5.82818 15.3576 5.75782 15.3868 5.70595 15.4386C5.65408 15.4905 5.62494 15.5609 5.62494 15.6342V18.975C5.62494 19.2582 5.73738 19.5297 5.93754 19.73C6.1377 19.9303 6.40919 20.0429 6.69234 20.043ZM4.07994 16.212C4.1344 16.2124 4.18777 16.1967 4.23332 16.1669C4.27888 16.137 4.31458 16.0944 4.33594 16.0443C4.3573 15.9942 4.36336 15.9389 4.35336 15.8853C4.34336 15.8318 4.31775 15.7824 4.27974 15.7434L0.661736 11.9916L4.26474 8.25662C4.28995 8.23042 4.30976 8.19951 4.32303 8.16566C4.33629 8.13181 4.34277 8.09567 4.34207 8.05932C4.34137 8.02296 4.33352 7.9871 4.31897 7.95378C4.30441 7.92046 4.28344 7.89033 4.25724 7.86512C4.20433 7.8142 4.13336 7.78638 4.05993 7.78779C4.02358 7.78848 3.98772 7.79634 3.9544 7.81089C3.92108 7.82545 3.89095 7.84642 3.86574 7.87262L0.0779381 11.7996C0.0280037 11.851 2.09808e-05 11.9198 -9.15527e-05 11.9915C-0.000202179 12.0632 0.0275631 12.1321 0.0773373 12.1836L3.88074 16.1274C3.90653 16.1542 3.93747 16.1755 3.9717 16.1901C4.00593 16.2046 4.04275 16.2121 4.07994 16.212Z" fill="#707070"/>
<path d="M0.277428 12.2682H13.6682C13.7416 12.2682 13.8119 12.2391 13.8638 12.1872C13.9157 12.1353 13.9448 12.065 13.9448 11.9916C13.9448 11.9183 13.9157 11.8479 13.8638 11.796C13.8119 11.7442 13.7416 11.715 13.6682 11.715H0.277428C0.204068 11.715 0.133713 11.7442 0.0818405 11.796C0.0299683 11.8479 0.000824928 11.9183 0.000824928 11.9916C0.000824928 12.065 0.0299683 12.1353 0.0818405 12.1872C0.133713 12.2391 0.204068 12.2682 0.277428 12.2682Z" fill="#707070"/>
</g>
<defs>
<clipPath id="clip0_2112_165">
<rect width="24" height="24" fill="white" transform="matrix(-1 0 0 1 24 0)"/>
</clipPath>
</defs>
</svg>
