<svg width="24" height="24" viewBox="0 0 24 24" fill="none" xmlns="http://www.w3.org/2000/svg">
<path d="M7.2 0H16.8C18.7096 0 20.5409 0.758569 21.8912 2.10883C23.2414 3.45909 24 5.29044 24 7.2V16.8C24 18.7096 23.2414 20.5409 21.8912 21.8912C20.5409 23.2414 18.7096 24 16.8 24H7.2C5.29044 24 3.45909 23.2414 2.10883 21.8912C0.758569 20.5409 0 18.7096 0 16.8L0 7.2C0 5.29044 0.758569 3.45909 2.10883 2.10883C3.45909 0.758569 5.29044 0 7.2 0ZM14.4 10.8C14.0817 10.8 13.7765 10.9264 13.5515 11.1515C13.3264 11.3765 13.2 11.6817 13.2 12C13.2 12.3183 13.3264 12.6235 13.5515 12.8485C13.7765 13.0736 14.0817 13.2 14.4 13.2H18C18.3183 13.2 18.6235 13.0736 18.8485 12.8485C19.0736 12.6235 19.2 12.3183 19.2 12C19.2 11.6817 19.0736 11.3765 18.8485 11.1515C18.6235 10.9264 18.3183 10.8 18 10.8H14.4ZM12 15.6C11.6817 15.6 11.3765 15.7264 11.1515 15.9515C10.9264 16.1765 10.8 16.4817 10.8 16.8C10.8 17.1183 10.9264 17.4235 11.1515 17.6485C11.3765 17.8736 11.6817 18 12 18H18C18.3183 18 18.6235 17.8736 18.8485 17.6485C19.0736 17.4235 19.2 17.1183 19.2 16.8C19.2 16.4817 19.0736 16.1765 18.8485 15.9515C18.6235 15.7264 18.3183 15.6 18 15.6H12ZM12 6C11.6817 6 11.3765 6.12643 11.1515 6.35147C10.9264 6.57652 10.8 6.88174 10.8 7.2C10.8 7.51826 10.9264 7.82348 11.1515 8.04853C11.3765 8.27357 11.6817 8.4 12 8.4H18C18.3183 8.4 18.6235 8.27357 18.8485 8.04853C19.0736 7.82348 19.2 7.51826 19.2 7.2C19.2 6.88174 19.0736 6.57652 18.8485 6.35147C18.6235 6.12643 18.3183 6 18 6H12ZM6.9936 12.2916L6.1452 11.4432C6.0345 11.3286 5.90209 11.2372 5.75569 11.1743C5.60928 11.1114 5.45182 11.0783 5.29248 11.0769C5.13315 11.0755 4.97513 11.1059 4.82766 11.1662C4.68018 11.2266 4.5462 11.3157 4.43353 11.4283C4.32086 11.541 4.23175 11.675 4.17141 11.8225C4.11108 11.9699 4.08072 12.1279 4.0821 12.2873C4.08348 12.4466 4.11659 12.6041 4.17948 12.7505C4.24237 12.8969 4.33379 13.0293 4.4484 13.14L6.1452 14.8368C6.25665 14.9484 6.38899 15.0369 6.53467 15.0973C6.68035 15.1577 6.8365 15.1887 6.9942 15.1887C7.1519 15.1887 7.30805 15.1577 7.45373 15.0973C7.59941 15.0369 7.73175 14.9484 7.8432 14.8368L11.2368 11.4432C11.4621 11.2182 11.5888 10.9129 11.5891 10.5944C11.5893 10.276 11.463 9.97053 11.238 9.7452C11.013 9.51987 10.7077 9.39316 10.3892 9.39293C10.0708 9.39271 9.76533 9.51899 9.54 9.744L6.9936 12.2904V12.2916Z" fill="white"/>
</svg>
