<svg width="44" height="44" viewBox="0 0 44 44" fill="none" xmlns="http://www.w3.org/2000/svg">
<rect x="0.5" y="0.5" width="43" height="43" rx="21.5" stroke="white"/>
<path d="M12.6648 27.3344C11.4954 25.2865 11.0316 22.9109 11.3448 20.5735C11.6579 18.2361 12.7306 16.0664 14.3978 14.3984L21.9998 21.9999L14.3983 29.6014C15.8158 31.0179 17.601 32.0098 19.5524 32.4654C21.5038 32.9209 23.5437 32.8218 25.4418 32.1794C27.3399 31.5369 29.0206 30.3766 30.2942 28.8295C31.5678 27.2824 32.3835 25.4101 32.6493 23.4239C32.9151 21.4378 32.6204 19.4169 31.7984 17.5893C30.9764 15.7618 29.66 14.2004 27.9976 13.0815C26.3352 11.9626 24.3931 11.3306 22.3906 11.257C20.3881 11.1834 18.4048 11.6711 16.6648 12.6649" stroke="white" stroke-width="0.5" stroke-linecap="round" stroke-linejoin="round"/>
</svg>
