<svg width="45" height="44" viewBox="0 0 45 44" fill="none" xmlns="http://www.w3.org/2000/svg">
<rect x="1" y="0.5" width="43" height="43" rx="21.5" stroke="white"/>
<g clip-path="url(#clip0_1557_1267)">
<path d="M34.125 22.75C34.125 22.8495 34.0855 22.9449 34.0151 23.0152C33.9448 23.0855 33.8494 23.125 33.75 23.125H31.875V25C31.875 25.0995 31.8355 25.1949 31.7651 25.2652C31.6948 25.3355 31.5994 25.375 31.5 25.375C31.4005 25.375 31.3051 25.3355 31.2348 25.2652C31.1645 25.1949 31.125 25.0995 31.125 25V23.125H29.25C29.1505 23.125 29.0551 23.0855 28.9848 23.0152C28.9145 22.9449 28.875 22.8495 28.875 22.75C28.875 22.6506 28.9145 22.5552 28.9848 22.4848C29.0551 22.4145 29.1505 22.375 29.25 22.375H31.125V20.5C31.125 20.4006 31.1645 20.3052 31.2348 20.2348C31.3051 20.1645 31.4005 20.125 31.5 20.125C31.5994 20.125 31.6948 20.1645 31.7651 20.2348C31.8355 20.3052 31.875 20.4006 31.875 20.5V22.375H33.75C33.8494 22.375 33.9448 22.4145 34.0151 22.4848C34.0855 22.5552 34.125 22.6506 34.125 22.75ZM28.7868 28.5091C28.8456 28.5857 28.8725 28.6821 28.862 28.7781C28.8515 28.8741 28.8044 28.9623 28.7304 29.0244C28.6565 29.0865 28.5614 29.1177 28.465 29.1115C28.3687 29.1053 28.2784 29.0621 28.2131 28.991C26.25 26.6594 23.5593 25.375 20.625 25.375C17.6906 25.375 15 26.6594 13.0368 28.991C13.006 29.0311 12.9674 29.0647 12.9232 29.0895C12.8791 29.1144 12.8304 29.13 12.7801 29.1355C12.7297 29.141 12.6788 29.1363 12.6303 29.1216C12.5818 29.1069 12.5369 29.0825 12.4981 29.0499C12.4593 29.0173 12.4275 28.9773 12.4047 28.9321C12.3818 28.8869 12.3683 28.8375 12.365 28.787C12.3618 28.7364 12.3688 28.6858 12.3856 28.638C12.4025 28.5902 12.4288 28.5464 12.4631 28.5091C14.0296 26.6435 16.0378 25.4031 18.2653 24.8913C16.9944 24.3477 15.9503 23.382 15.3092 22.1574C14.6682 20.9328 14.4696 19.5245 14.7471 18.1704C15.0245 16.8163 15.761 15.5996 16.8319 14.7258C17.9029 13.852 19.2427 13.3748 20.625 13.3748C22.0072 13.3748 23.347 13.852 24.418 14.7258C25.4889 15.5996 26.2254 16.8163 26.5028 18.1704C26.7803 19.5245 26.5817 20.9328 25.9407 22.1574C25.2996 23.382 24.2555 24.3477 22.9846 24.8913C25.2121 25.4031 27.2203 26.6435 28.7868 28.5091ZM20.625 24.625C21.6633 24.625 22.6783 24.3171 23.5417 23.7402C24.4051 23.1634 25.078 22.3434 25.4753 21.3841C25.8727 20.4248 25.9767 19.3692 25.7741 18.3508C25.5715 17.3324 25.0715 16.3969 24.3373 15.6627C23.603 14.9285 22.6676 14.4285 21.6492 14.2259C20.6308 14.0233 19.5752 14.1273 18.6159 14.5246C17.6566 14.922 16.8366 15.5949 16.2597 16.4583C15.6829 17.3216 15.375 18.3367 15.375 19.375C15.3764 20.7669 15.93 22.1014 16.9143 23.0857C17.8985 24.0699 19.233 24.6235 20.625 24.625Z" fill="white"/>
</g>
<defs>
<clipPath id="clip0_1557_1267">
<rect width="24" height="24" fill="white" transform="translate(10.5 10)"/>
</clipPath>
</defs>
</svg>
