<svg width="44" height="44" viewBox="0 0 44 44" fill="none" xmlns="http://www.w3.org/2000/svg">
<rect width="44" height="44" rx="22" fill="#B0B0B0"/>
<path d="M22.5267 20.9585C21.7367 16.518 28.9902 14.42 30.8652 16.32C32.7402 18.22 27.0977 24.745 23.9427 22.446" stroke="black" stroke-width="0.5" stroke-linecap="round" stroke-linejoin="round"/>
<path d="M22.5267 20.9585L21.6712 22.9805C21.0632 24.762 19.7352 24.131 18.8282 23.8135C17.3517 23.296 16.1212 23.4655 15.5452 25.0385C15.1692 26.066 14.8702 26.98 14.6652 27.4535C14.4602 27.9265 13.4952 28.0615 12.7627 27.9525C13.4027 28.193 14.0592 28.4725 14.5462 28.3455C15.1217 28.1955 15.0422 28.0875 16.0332 25.978C16.6327 24.51 17.1842 24.638 18.1862 25.1695C20.4672 26.3795 22.0137 25.8825 22.7892 24.527C23.3082 23.62 23.4317 22.614 23.9432 22.4455" stroke="black" stroke-width="0.5" stroke-linecap="round" stroke-linejoin="round"/>
</svg>
