<svg width="24" height="24" viewBox="0 0 24 24" fill="none" xmlns="http://www.w3.org/2000/svg">
<path d="M19.98 9.063L20.73 9.065V9.063H19.98ZM4.02004 9.063H3.27004V9.065L4.02004 9.063ZM19.1 10.66L18.527 11.145L18.611 11.245L18.725 11.31L19.1 10.66ZM18.828 9.395C18.6676 9.27724 18.4669 9.22805 18.2702 9.25825C18.0735 9.28844 17.8968 9.39554 17.779 9.556C17.6613 9.71646 17.6121 9.91712 17.6423 10.1138C17.6725 10.3106 17.7796 10.4872 17.94 10.605L18.828 9.395ZM6.06004 10.605C6.13949 10.5467 6.20667 10.4733 6.25776 10.389C6.30885 10.3048 6.34284 10.2113 6.35779 10.1138C6.37274 10.0164 6.36836 9.91704 6.3449 9.82132C6.32143 9.72561 6.27934 9.63545 6.22104 9.556C6.16273 9.47655 6.08934 9.40936 6.00507 9.35827C5.9208 9.30719 5.82729 9.27319 5.72988 9.25824C5.63247 9.24329 5.53307 9.24768 5.43736 9.27114C5.34164 9.29461 5.25149 9.33669 5.17204 9.395L6.06004 10.605ZM12 5.656C11.228 5.656 10.79 5.697 10.444 5.74C10.104 5.782 9.93204 5.812 9.60604 5.812V7.312C10.046 7.312 10.331 7.265 10.626 7.229C10.916 7.193 11.292 7.156 12 7.156V5.656ZM12 7.156C12.708 7.156 13.085 7.193 13.373 7.229C13.669 7.265 13.953 7.312 14.394 7.312V5.812C14.068 5.812 13.896 5.782 13.556 5.74C13.0397 5.67832 12.52 5.65026 12 5.656V7.156ZM14.394 7.313C14.607 7.313 14.806 7.252 14.949 7.199C15.105 7.141 15.266 7.065 15.421 6.985C15.726 6.828 16.08 6.618 16.404 6.431C16.744 6.236 17.064 6.058 17.351 5.928C17.659 5.788 17.835 5.75 17.905 5.75V4.25C17.497 4.25 17.075 4.407 16.734 4.56C16.366 4.73336 16.0062 4.9239 15.656 5.131C15.302 5.335 14.998 5.516 14.734 5.651C14.6047 5.71767 14.5027 5.76467 14.428 5.792C14.341 5.824 14.341 5.812 14.394 5.812V7.313ZM17.905 5.75C18.25 5.75 18.58 5.853 18.812 6.053C19.024 6.235 19.23 6.563 19.23 7.188H20.73C20.73 6.188 20.378 5.422 19.791 4.916C19.225 4.429 18.519 4.25 17.905 4.25V5.75ZM19.23 7.188V9.063H20.73V7.188H19.23ZM9.60604 5.813C9.65904 5.813 9.65904 5.824 9.57204 5.793C9.46748 5.75177 9.36531 5.7047 9.26604 5.652C9.00204 5.516 8.69804 5.335 8.34404 5.132C8.00404 4.936 7.62804 4.724 7.26604 4.561C6.92604 4.407 6.50304 4.25 6.09504 4.25V5.75C6.16504 5.75 6.34104 5.789 6.64904 5.928C6.93604 6.058 7.25704 6.236 7.59604 6.431C7.92004 6.618 8.27404 6.828 8.57904 6.985C8.73404 7.065 8.89504 7.141 9.05104 7.199C9.19404 7.252 9.39304 7.313 9.60604 7.313V5.813ZM6.09504 4.25C5.48104 4.25 4.77504 4.429 4.20904 4.916C3.62204 5.421 3.27004 6.188 3.27004 7.187H4.77004C4.77004 6.562 4.97604 6.235 5.18804 6.053C5.42004 5.853 5.75104 5.75 6.09504 5.75V4.25ZM3.27004 7.188V9.063H4.77004V7.187L3.27004 7.188ZM12 20.75C13.431 20.75 15.54 20.465 17.32 19.646C19.104 18.826 20.73 17.373 20.73 15H19.23C19.23 16.533 18.223 17.58 16.694 18.284C15.165 18.988 13.282 19.25 12 19.25V20.75ZM19.672 10.176C19.4216 9.88442 19.1384 9.6217 18.828 9.395L17.94 10.605C18.1787 10.783 18.3744 10.962 18.527 11.144L19.672 10.176ZM19.23 9.06C19.23 9.258 19.189 9.67 19.092 9.955C19.037 10.114 19.006 10.11 19.062 10.065C19.12 10.0209 19.1885 9.9926 19.2608 9.98296C19.333 9.97332 19.4065 9.98264 19.474 10.01L18.725 11.31C18.905 11.414 19.127 11.49 19.375 11.477C19.63 11.464 19.841 11.363 20.001 11.235C20.288 11.005 20.433 10.669 20.511 10.439C20.679 9.948 20.729 9.359 20.731 9.065L19.23 9.06ZM12 19.25C10.718 19.25 8.83704 18.988 7.30604 18.284C5.77604 17.58 4.77004 16.533 4.77004 15H3.27004C3.27004 17.373 4.89604 18.826 6.68004 19.646C8.46004 20.466 10.569 20.75 12 20.75V19.25ZM4.77004 15C4.77004 14.212 4.71304 13.563 4.78904 12.872C4.85904 12.227 5.04204 11.654 5.47304 11.145L4.32804 10.175C3.64804 10.98 3.39004 11.868 3.29804 12.709C3.21104 13.506 3.27004 14.369 3.27004 15H4.77004ZM5.47304 11.145C5.64684 10.9426 5.84386 10.7613 6.06004 10.605L5.17204 9.395C4.84337 9.63767 4.56204 9.89767 4.32804 10.175L5.47304 11.145ZM3.27004 9.065C3.27104 9.359 3.32104 9.948 3.48904 10.439C3.56704 10.669 3.71204 11.005 3.99904 11.235C4.15904 11.363 4.37004 11.464 4.62404 11.477C4.87304 11.489 5.09404 11.414 5.27504 11.31L4.52604 10.01C4.59345 9.98282 4.66676 9.9736 4.7388 9.98324C4.81084 9.99288 4.87914 10.0211 4.93704 10.065C4.99404 10.11 4.96304 10.114 4.90804 9.955C4.82113 9.66443 4.77469 9.36326 4.77004 9.06L3.27004 9.065Z" fill="white"/>
<path d="M12.8262 16C12.8262 16.173 12.4652 16.313 12.0202 16.313C11.5752 16.313 11.2132 16.173 11.2132 16C11.2132 15.827 11.5742 15.688 12.0202 15.688C12.4652 15.688 12.8262 15.828 12.8262 16ZM15.5002 13.594C15.5002 14.025 15.2832 14.375 15.0162 14.375C14.7492 14.375 14.5322 14.025 14.5322 13.594C14.5322 13.163 14.7492 12.813 15.0162 12.813C15.2832 12.813 15.5002 13.164 15.5002 13.594ZM9.50023 13.594C9.50023 14.025 9.28323 14.375 9.01623 14.375C8.74923 14.375 8.53223 14.025 8.53223 13.594C8.53223 13.163 8.74923 12.813 9.01623 12.813C9.28323 12.813 9.50023 13.164 9.50023 13.594Z" stroke="white" stroke-width="1.5"/>
<path d="M22 15.469C21.517 15.156 19.42 14.375 18.613 14.375M20.387 17.969C19.903 17.656 18.774 16.875 17.967 16.875M2 15.469C2.484 15.156 4.58 14.375 5.387 14.375M3.613 17.969C4.097 17.656 5.226 16.875 6.033 16.875" stroke="white" stroke-width="1.5" stroke-linecap="round"/>
</svg>
