<svg width="63" height="40" viewBox="0 0 63 40" fill="none" xmlns="http://www.w3.org/2000/svg">
<path d="M0.710227 2.99006V0.454545H12.6562V2.99006H8.20312V15H5.16335V2.99006H0.710227ZM16.1932 15.206C15.4972 15.206 14.8769 15.0852 14.3324 14.8438C13.7879 14.5975 13.357 14.2353 13.0398 13.7571C12.7273 13.2741 12.571 12.6728 12.571 11.9531C12.571 11.3471 12.6823 10.8381 12.9048 10.4261C13.1274 10.0142 13.4304 9.68277 13.8139 9.43182C14.1974 9.18087 14.633 8.99148 15.1207 8.86364C15.6132 8.7358 16.1293 8.64583 16.669 8.59375C17.3035 8.52746 17.8149 8.46591 18.2031 8.40909C18.5914 8.34754 18.8731 8.25758 19.0483 8.1392C19.2235 8.02083 19.3111 7.84564 19.3111 7.61364V7.57102C19.3111 7.12121 19.169 6.7732 18.8849 6.52699C18.6056 6.28078 18.2079 6.15767 17.6918 6.15767C17.1473 6.15767 16.714 6.27841 16.392 6.51989C16.0701 6.75663 15.857 7.05492 15.7528 7.41477L12.9545 7.1875C13.0966 6.52462 13.3759 5.9517 13.7926 5.46875C14.2093 4.98106 14.7467 4.60701 15.4048 4.34659C16.0677 4.08144 16.8348 3.94886 17.706 3.94886C18.312 3.94886 18.892 4.01989 19.446 4.16193C20.0047 4.30398 20.4995 4.52415 20.9304 4.82244C21.366 5.12074 21.7093 5.50426 21.9602 5.97301C22.2112 6.43703 22.3366 6.99337 22.3366 7.64205V15H19.4673V13.4872H19.3821C19.2069 13.8281 18.9725 14.1288 18.679 14.3892C18.3854 14.6449 18.0327 14.8461 17.6207 14.9929C17.2088 15.1349 16.733 15.206 16.1932 15.206ZM17.0597 13.1179C17.5047 13.1179 17.8977 13.0303 18.2386 12.8551C18.5795 12.6752 18.8471 12.4337 19.0412 12.1307C19.2353 11.8277 19.3324 11.4844 19.3324 11.1009V9.94318C19.2377 10.0047 19.1075 10.0616 18.9418 10.1136C18.7808 10.161 18.5985 10.206 18.3949 10.2486C18.1913 10.2865 17.9877 10.322 17.7841 10.3551C17.5805 10.3835 17.3958 10.4096 17.2301 10.4332C16.875 10.4853 16.5649 10.5682 16.2997 10.6818C16.0346 10.7955 15.8286 10.9493 15.6818 11.1435C15.535 11.3329 15.4616 11.5696 15.4616 11.8537C15.4616 12.2656 15.6108 12.5805 15.9091 12.7983C16.2121 13.0114 16.5956 13.1179 17.0597 13.1179ZM33.7607 7.2017L30.9908 7.37216C30.9434 7.13542 30.8416 6.92235 30.6854 6.73295C30.5291 6.53883 30.3232 6.38494 30.0675 6.27131C29.8165 6.15294 29.5159 6.09375 29.1655 6.09375C28.6967 6.09375 28.3014 6.19318 27.9794 6.39205C27.6574 6.58617 27.4964 6.84659 27.4964 7.1733C27.4964 7.43371 27.6006 7.65388 27.8089 7.83381C28.0173 8.01373 28.3748 8.15814 28.8814 8.26705L30.8558 8.66477C31.9164 8.88258 32.7071 9.23295 33.228 9.71591C33.7488 10.1989 34.0092 10.8333 34.0092 11.6193C34.0092 12.3343 33.7985 12.9616 33.3771 13.5014C32.9605 14.0412 32.3875 14.4626 31.6584 14.7656C30.9339 15.0639 30.0982 15.2131 29.1513 15.2131C27.7071 15.2131 26.5566 14.9124 25.6996 14.3111C24.8473 13.705 24.3478 12.8812 24.201 11.8395L27.1768 11.6832C27.2668 12.1236 27.4846 12.4598 27.8303 12.6918C28.1759 12.919 28.6186 13.0327 29.1584 13.0327C29.6887 13.0327 30.1148 12.9309 30.4368 12.7273C30.7635 12.5189 30.9292 12.2514 30.9339 11.9247C30.9292 11.6501 30.8132 11.4252 30.5859 11.25C30.3587 11.0701 30.0083 10.9328 29.5348 10.8381L27.6456 10.4616C26.5803 10.2486 25.7872 9.87926 25.2663 9.35369C24.7502 8.82812 24.4922 8.15814 24.4922 7.34375C24.4922 6.64299 24.6816 6.0393 25.0604 5.53267C25.4439 5.02604 25.9813 4.63542 26.6726 4.3608C27.3686 4.08617 28.183 3.94886 29.1158 3.94886C30.4936 3.94886 31.5779 4.24006 32.3686 4.82244C33.1641 5.40483 33.6281 6.19792 33.7607 7.2017ZM38.6559 11.8608L38.663 8.23153H39.1033L42.5977 4.09091H46.0707L41.3761 9.57386H40.6587L38.6559 11.8608ZM35.9144 15V0.454545H38.94V15H35.9144ZM42.7326 15L39.5224 10.2486L41.5394 8.1108L46.2766 15H42.7326ZM1.2642 39V24.4545H10.8949V26.9901H4.33949V30.456H10.2557V32.9915H4.33949V39H1.2642ZM15.9322 24.4545V39H12.9066V24.4545H15.9322ZM23.2848 39.2131C22.1816 39.2131 21.2275 38.9787 20.4226 38.5099C19.6224 38.0365 19.0045 37.3783 18.5689 36.5355C18.1333 35.688 17.9155 34.7055 17.9155 33.5881C17.9155 32.4612 18.1333 31.4763 18.5689 30.6335C19.0045 29.786 19.6224 29.1278 20.4226 28.6591C21.2275 28.1856 22.1816 27.9489 23.2848 27.9489C24.388 27.9489 25.3397 28.1856 26.1399 28.6591C26.9448 29.1278 27.5651 29.786 28.0007 30.6335C28.4363 31.4763 28.6541 32.4612 28.6541 33.5881C28.6541 34.7055 28.4363 35.688 28.0007 36.5355C27.5651 37.3783 26.9448 38.0365 26.1399 38.5099C25.3397 38.9787 24.388 39.2131 23.2848 39.2131ZM23.299 36.8693C23.8009 36.8693 24.2199 36.7273 24.5561 36.4432C24.8923 36.1544 25.1456 35.7614 25.3161 35.2642C25.4912 34.767 25.5788 34.2012 25.5788 33.5668C25.5788 32.9323 25.4912 32.3665 25.3161 31.8693C25.1456 31.3722 24.8923 30.9792 24.5561 30.6903C24.2199 30.4015 23.8009 30.2571 23.299 30.2571C22.7924 30.2571 22.3662 30.4015 22.0206 30.6903C21.6797 30.9792 21.4216 31.3722 21.2464 31.8693C21.076 32.3665 20.9908 32.9323 20.9908 33.5668C20.9908 34.2012 21.076 34.767 21.2464 35.2642C21.4216 35.7614 21.6797 36.1544 22.0206 36.4432C22.3662 36.7273 22.7924 36.8693 23.299 36.8693ZM32.5 39L29.5312 28.0909H32.5923L34.2827 35.4205H34.3821L36.1435 28.0909H39.1477L40.9375 35.3778H41.0298L42.6918 28.0909H45.7457L42.7841 39H39.581L37.706 32.1392H37.571L35.696 39H32.5ZM49.5117 39L46.543 28.0909H49.604L51.2944 35.4205H51.3938L53.1552 28.0909H56.1594L57.9492 35.3778H58.0415L59.7035 28.0909H62.7575L59.7958 39H56.5927L54.7177 32.1392H54.5827L52.7077 39H49.5117Z" fill="white"/>
</svg>
