<svg width="33" height="32" viewBox="0 0 33 32" fill="none" xmlns="http://www.w3.org/2000/svg">
<path d="M28.5 10.6667H9.83332C9.47969 10.6667 9.14056 10.5262 8.89051 10.2761C8.64046 10.0261 8.49998 9.68696 8.49998 9.33333C8.49998 8.97971 8.64046 8.64057 8.89051 8.39052C9.14056 8.14048 9.47969 8 9.83332 8H28.5C28.8536 8 29.1927 8.14048 29.4428 8.39052C29.6928 8.64057 29.8333 8.97971 29.8333 9.33333C29.8333 9.68696 29.6928 10.0261 29.4428 10.2761C29.1927 10.5262 28.8536 10.6667 28.5 10.6667ZM28.5 17.3333H9.83332C9.47969 17.3333 9.14056 17.1929 8.89051 16.9428C8.64046 16.6928 8.49998 16.3536 8.49998 16C8.49998 15.6464 8.64046 15.3072 8.89051 15.0572C9.14056 14.8071 9.47969 14.6667 9.83332 14.6667H28.5C28.8536 14.6667 29.1927 14.8071 29.4428 15.0572C29.6928 15.3072 29.8333 15.6464 29.8333 16C29.8333 16.3536 29.6928 16.6928 29.4428 16.9428C29.1927 17.1929 28.8536 17.3333 28.5 17.3333ZM28.5 24H9.83332C9.47969 24 9.14056 23.8595 8.89051 23.6095C8.64046 23.3594 8.49998 23.0203 8.49998 22.6667C8.49998 22.313 8.64046 21.9739 8.89051 21.7239C9.14056 21.4738 9.47969 21.3333 9.83332 21.3333H28.5C28.8536 21.3333 29.1927 21.4738 29.4428 21.7239C29.6928 21.9739 29.8333 22.313 29.8333 22.6667C29.8333 23.0203 29.6928 23.3594 29.4428 23.6095C29.1927 23.8595 28.8536 24 28.5 24ZM4.49998 10.6667C4.32575 10.6646 4.15361 10.6283 3.99332 10.56C3.83232 10.4914 3.68368 10.3968 3.55332 10.28C3.43655 10.1496 3.34196 10.001 3.27332 9.84C3.20357 9.68019 3.16757 9.5077 3.16757 9.33333C3.16757 9.15897 3.20357 8.98648 3.27332 8.82667C3.34196 8.66567 3.43655 8.51703 3.55332 8.38667C3.74081 8.20166 3.97891 8.07633 4.23756 8.0265C4.49622 7.97666 4.76384 8.00456 5.00665 8.10667C5.17032 8.17013 5.31984 8.26528 5.44665 8.38667C5.56342 8.51703 5.65801 8.66567 5.72665 8.82667C5.79719 8.98627 5.83363 9.15884 5.83363 9.33333C5.83363 9.50783 5.79719 9.6804 5.72665 9.84C5.65801 10.001 5.56342 10.1496 5.44665 10.28C5.32206 10.4036 5.17431 10.5013 5.01186 10.5677C4.84941 10.634 4.67546 10.6677 4.49998 10.6667ZM4.49998 17.3333C4.32575 17.3312 4.15361 17.295 3.99332 17.2267C3.83232 17.158 3.68368 17.0634 3.55332 16.9467C3.43655 16.8163 3.34196 16.6677 3.27332 16.5067C3.20357 16.3469 3.16757 16.1744 3.16757 16C3.16757 15.8256 3.20357 15.6531 3.27332 15.4933C3.33678 15.3297 3.43193 15.1801 3.55332 15.0533C3.68368 14.9366 3.83232 14.842 3.99332 14.7733C4.23613 14.6712 4.50375 14.6433 4.7624 14.6932C5.02105 14.743 5.25915 14.8683 5.44665 15.0533C5.56804 15.1801 5.66319 15.3297 5.72665 15.4933C5.79719 15.6529 5.83363 15.8255 5.83363 16C5.83363 16.1745 5.79719 16.3471 5.72665 16.5067C5.65801 16.6677 5.56342 16.8163 5.44665 16.9467C5.31628 17.0634 5.16764 17.158 5.00665 17.2267C4.84635 17.295 4.67422 17.3312 4.49998 17.3333ZM4.49998 24C4.32575 23.9979 4.15361 23.9617 3.99332 23.8933C3.83232 23.8247 3.68368 23.7301 3.55332 23.6133C3.36676 23.4268 3.24037 23.1887 3.19046 22.9296C3.14055 22.6706 3.16941 22.4025 3.27332 22.16C3.33678 21.9963 3.43193 21.8468 3.55332 21.72C3.68012 21.5986 3.82965 21.5035 3.99332 21.44C4.31793 21.3066 4.68203 21.3066 5.00665 21.44C5.17032 21.5035 5.31984 21.5986 5.44665 21.72C5.56804 21.8468 5.66319 21.9963 5.72665 22.16C5.83055 22.4025 5.85941 22.6706 5.8095 22.9296C5.75959 23.1887 5.63321 23.4268 5.44665 23.6133C5.31628 23.7301 5.16764 23.8247 5.00665 23.8933C4.84635 23.9617 4.67422 23.9979 4.49998 24Z" fill="white"/>
</svg>
