<svg width="33" height="32" viewBox="0 0 33 32" fill="none" xmlns="http://www.w3.org/2000/svg">
<path opacity="0.25" d="M8.50004 1.33334H3.16671C2.81309 1.33334 2.47395 1.47381 2.2239 1.72386C1.97385 1.97391 1.83337 2.31305 1.83337 2.66667V13.3333C1.83337 13.687 1.97385 14.0261 2.2239 14.2761C2.47395 14.5262 2.81309 14.6667 3.16671 14.6667H8.50004C8.85366 14.6667 9.1928 14.5262 9.44285 14.2761C9.6929 14.0261 9.83337 13.687 9.83337 13.3333V2.66667C9.83337 2.31305 9.6929 1.97391 9.44285 1.72386C9.1928 1.47381 8.85366 1.33334 8.50004 1.33334Z" fill="#B0B0B0"/>
<path d="M19.1667 1.33334H13.8333C13.4797 1.33334 13.1406 1.47381 12.8905 1.72386C12.6405 1.97391 12.5 2.31305 12.5 2.66667V29.3333C12.5 29.687 12.6405 30.0261 12.8905 30.2761C13.1406 30.5262 13.4797 30.6667 13.8333 30.6667H19.1667C19.5203 30.6667 19.8594 30.5262 20.1095 30.2761C20.3595 30.0261 20.5 29.687 20.5 29.3333V2.66667C20.5 2.31305 20.3595 1.97391 20.1095 1.72386C19.8594 1.47381 19.5203 1.33334 19.1667 1.33334Z" fill="#B0B0B0"/>
<path opacity="0.5" d="M29.8333 1.33333H24.5C24.1463 1.33333 23.8072 1.47381 23.5571 1.72386C23.3071 1.97391 23.1666 2.31305 23.1666 2.66667V18.6667C23.1666 19.0203 23.3071 19.3594 23.5571 19.6095C23.8072 19.8595 24.1463 20 24.5 20H29.8333C30.1869 20 30.5261 19.8595 30.7761 19.6095C31.0262 19.3594 31.1666 19.0203 31.1666 18.6667V2.66667C31.1666 2.31305 31.0262 1.97391 30.7761 1.72386C30.5261 1.47381 30.1869 1.33333 29.8333 1.33333Z" fill="#B0B0B0"/>
</svg>
