<svg width="33" height="32" viewBox="0 0 33 32" fill="none" xmlns="http://www.w3.org/2000/svg">
<path opacity="0.5" d="M21.8334 13.3333H5.83337V8H20.5C20.8537 8 21.1928 8.14048 21.4429 8.39052C21.6929 8.64057 21.8334 8.97971 21.8334 9.33333V13.3333Z" fill="#B0B0B0"/>
<path d="M28.5 24H5.83337V13.3333H28.5C28.8537 13.3333 29.1928 13.4738 29.4429 13.7239C29.6929 13.9739 29.8334 14.313 29.8334 14.6667V22.6667C29.8334 23.0203 29.6929 23.3594 29.4429 23.6095C29.1928 23.8595 28.8537 24 28.5 24Z" fill="#B0B0B0"/>
<path opacity="0.25" d="M4.49996 29.3333C4.14657 29.3333 3.80763 29.193 3.55762 28.9433C3.30761 28.6935 3.16698 28.3547 3.16663 28.0013V4C3.16663 3.64638 3.3071 3.30724 3.55715 3.05719C3.8072 2.80714 4.14634 2.66666 4.49996 2.66666C4.85358 2.66666 5.19272 2.80714 5.44277 3.05719C5.69282 3.30724 5.83329 3.64638 5.83329 4V28C5.83329 28.3534 5.693 28.6923 5.44324 28.9423C5.19348 29.1923 4.85335 29.333 4.49996 29.3333Z" fill="#B0B0B0"/>
</svg>
