<svg width="33" height="32" viewBox="0 0 33 32" fill="none" xmlns="http://www.w3.org/2000/svg">
<path opacity="0.5" d="M29.8333 13.3333H3.16663V25.3333C3.16663 26.3942 3.58805 27.4116 4.3382 28.1618C5.08834 28.9119 6.10576 29.3333 7.16663 29.3333H25.8333C26.8942 29.3333 27.9116 28.9119 28.6617 28.1618C29.4119 27.4116 29.8333 26.3942 29.8333 25.3333V13.3333ZM9.83329 10.6667C9.47967 10.6667 9.14053 10.5262 8.89048 10.2761C8.64044 10.0261 8.49996 9.68695 8.49996 9.33333V4C8.49996 3.64638 8.64044 3.30724 8.89048 3.05719C9.14053 2.80714 9.47967 2.66666 9.83329 2.66666C10.1869 2.66666 10.5261 2.80714 10.7761 3.05719C11.0261 3.30724 11.1666 3.64638 11.1666 4V9.33333C11.1666 9.68695 11.0261 10.0261 10.7761 10.2761C10.5261 10.5262 10.1869 10.6667 9.83329 10.6667ZM23.1666 10.6667C22.813 10.6667 22.4739 10.5262 22.2238 10.2761C21.9738 10.0261 21.8333 9.68695 21.8333 9.33333V4C21.8333 3.64638 21.9738 3.30724 22.2238 3.05719C22.4739 2.80714 22.813 2.66666 23.1666 2.66666C23.5202 2.66666 23.8594 2.80714 24.1094 3.05719C24.3595 3.30724 24.5 3.64638 24.5 4V9.33333C24.5 9.68695 24.3595 10.0261 24.1094 10.2761C23.8594 10.5262 23.5202 10.6667 23.1666 10.6667Z" fill="#B0B0B0"/>
<path d="M25.8333 5.33334H24.5V9.33334C24.5 9.68696 24.3595 10.0261 24.1094 10.2761C23.8594 10.5262 23.5202 10.6667 23.1666 10.6667C22.813 10.6667 22.4739 10.5262 22.2238 10.2761C21.9738 10.0261 21.8333 9.68696 21.8333 9.33334V5.33334H11.1666V9.33334C11.1666 9.68696 11.0261 10.0261 10.7761 10.2761C10.5261 10.5262 10.1869 10.6667 9.83329 10.6667C9.47967 10.6667 9.14053 10.5262 8.89048 10.2761C8.64044 10.0261 8.49996 9.68696 8.49996 9.33334V5.33334H7.16663C6.10576 5.33334 5.08834 5.75476 4.3382 6.50491C3.58805 7.25505 3.16663 8.27247 3.16663 9.33334V13.3333H29.8333V9.33334C29.8333 8.27247 29.4119 7.25505 28.6617 6.50491C27.9116 5.75476 26.8942 5.33334 25.8333 5.33334Z" fill="#B0B0B0"/>
</svg>
