<svg width="28" height="28" viewBox="0 0 28 28" fill="none" xmlns="http://www.w3.org/2000/svg">
<path d="M18.5 13.5H10.707L14.353 9.854C14.4441 9.7597 14.4945 9.6334 14.4933 9.5023C14.4922 9.3712 14.4396 9.24579 14.3469 9.15309C14.2542 9.06039 14.1288 9.0078 13.9977 9.00666C13.8666 9.00552 13.7403 9.05592 13.646 9.147L9.146 13.647C9.05363 13.7401 9.00155 13.8658 9.001 13.997L9 14C8.99988 14.0657 9.01272 14.1308 9.03777 14.1915C9.06282 14.2523 9.0996 14.3075 9.146 14.354L13.646 18.854C13.7398 18.9477 13.8669 19.0004 13.9995 19.0004C14.1321 19.0004 14.2592 18.9477 14.353 18.854C14.3996 18.8076 14.4365 18.7524 14.4617 18.6916C14.4869 18.6309 14.4999 18.5658 14.4999 18.5C14.4999 18.4342 14.4869 18.3691 14.4617 18.3084C14.4365 18.2476 14.3996 18.1924 14.353 18.146L10.708 14.5H18.5C18.6326 14.5 18.7598 14.4473 18.8536 14.3536C18.9473 14.2598 19 14.1326 19 14C19 13.8674 18.9473 13.7402 18.8536 13.6464C18.7598 13.5527 18.6326 13.5 18.5 13.5ZM14 4C8.477 4 4 8.477 4 14C4 19.523 8.477 24 14 24C19.52 23.994 23.994 19.52 24 14C24 8.477 19.523 4 14 4ZM14 23C12.8181 23 11.6478 22.7672 10.5558 22.3149C9.46392 21.8626 8.47177 21.1997 7.63604 20.364C6.80031 19.5282 6.13738 18.5361 5.68508 17.4442C5.23279 16.3522 5 15.1819 5 14C5 12.8181 5.23279 11.6478 5.68508 10.5558C6.13738 9.46392 6.80031 8.47177 7.63604 7.63604C8.47177 6.80031 9.46392 6.13738 10.5558 5.68508C11.6478 5.23279 12.8181 5 14 5C16.3861 5.00265 18.6738 5.95171 20.361 7.63896C22.0483 9.32622 22.9974 11.6139 23 14C23 16.3869 22.0518 18.6761 20.364 20.364C18.6761 22.0518 16.3869 23 14 23Z" fill="white"/>
</svg>
